<?xml version="1.0" standalone="no"?>
<!DOCTYPE svg PUBLIC "-//W3C//DTD SVG 20010904//EN"
 "http://www.w3.org/TR/2001/REC-SVG-20010904/DTD/svg10.dtd">
<svg version="1.0" xmlns="http://www.w3.org/2000/svg"
 width="1081.000000pt" height="1064.000000pt" viewBox="0 0 1081.000000 1064.000000"
 preserveAspectRatio="xMidYMid meet">

<g transform="translate(0.000000,1064.000000) scale(0.100000,-0.100000)"
fill="#000000" stroke="none">
<path d="M5075 8664 c-1791 -96 -3336 -794 -4199 -1898 -336 -430 -542 -902
-623 -1426 -24 -161 -24 -549 0 -710 89 -577 329 -1090 731 -1560 31 -36 56
-69 56 -75 0 -13 296 -289 430 -401 1636 -1368 4439 -1694 6605 -769 1306 558
2214 1512 2449 2575 50 227 60 328 60 585 0 257 -10 358 -60 585 -129 583
-487 1180 -982 1636 -886 818 -2094 1311 -3532 1439 -166 15 -776 27 -935 19z
m715 -14 c473 -27 900 -90 1325 -196 1350 -337 2436 -1049 3025 -1984 84 -134
212 -392 265 -533 231 -626 231 -1278 0 -1904 -53 -141 -181 -399 -265 -533
-316 -502 -779 -945 -1356 -1298 -1628 -997 -3952 -1175 -5839 -447 -670 258
-1311 659 -1722 1077 l-73 73 79 -3 c113 -6 243 23 376 83 17 7 53 23 80 35
66 29 229 111 235 119 3 3 43 26 90 50 47 24 87 47 90 50 3 3 31 19 62 36 32
16 58 33 58 37 0 4 5 8 12 8 9 0 136 73 278 160 287 177 642 403 673 430 48
42 966 653 1307 870 417 265 592 364 810 455 74 31 153 65 175 75 64 29 811
325 910 360 50 18 119 44 155 58 232 89 1205 395 1324 416 6 1 27 7 46 14 19
6 46 14 60 17 14 2 131 34 260 70 188 52 552 136 735 169 17 3 93 19 170 35
77 16 158 32 180 36 22 4 49 9 60 10 11 2 57 13 102 24 45 11 92 22 105 25 24
5 197 64 256 87 37 15 38 19 16 65 -21 44 -83 81 -150 89 -75 10 -162 -7 -454
-90 -146 -42 -319 -89 -385 -106 -66 -17 -183 -50 -260 -74 -77 -24 -277 -83
-445 -130 -281 -79 -457 -133 -930 -282 -96 -30 -294 -97 -440 -148 -491 -173
-513 -182 -895 -331 -66 -25 -154 -59 -195 -74 -41 -15 -120 -44 -175 -64 -90
-33 -215 -69 -221 -63 -2 1 13 56 32 121 38 133 42 183 15 242 -63 139 -264
221 -481 196 -41 -5 -77 -8 -79 -5 -13 11 171 175 423 377 22 17 52 43 68 59
16 15 33 27 37 27 10 0 243 229 295 290 149 174 217 424 151 557 -81 161 -308
168 -705 21 -74 -28 -153 -58 -175 -68 -22 -10 -106 -47 -187 -83 -280 -126
-747 -369 -978 -510 -63 -39 -130 -78 -149 -88 -18 -10 -41 -24 -50 -32 -21
-18 -258 -167 -266 -167 -3 0 -11 -5 -18 -11 -7 -5 -39 -27 -72 -48 -275 -176
-606 -392 -732 -477 -83 -57 -156 -104 -161 -104 -6 0 -12 -4 -14 -9 -1 -5
-52 -44 -113 -87 -146 -102 -292 -222 -572 -469 -6 -5 -42 -39 -80 -75 -37
-36 -82 -77 -98 -91 -46 -39 -436 -439 -472 -484 -148 -181 -186 -230 -235
-300 -65 -95 -118 -202 -125 -256 -10 -74 0 -66 352 280 149 147 297 289 330
318 101 86 246 205 316 258 36 27 81 63 100 78 58 47 309 227 445 320 71 48
145 98 164 111 60 41 420 271 529 337 125 78 114 71 391 231 124 72 236 138
250 146 14 9 43 26 65 37 55 30 134 73 390 215 220 122 544 287 685 350 41 18
107 48 147 67 40 18 74 33 76 33 3 0 49 21 103 47 106 49 196 84 203 77 5 -5
-244 -252 -327 -323 -34 -29 -124 -103 -200 -163 -75 -60 -144 -115 -152 -121
-8 -7 -67 -52 -130 -102 -63 -49 -155 -123 -205 -164 -208 -173 -336 -236
-672 -335 -195 -57 -366 -117 -498 -176 -22 -10 -94 -41 -160 -68 -489 -205
-919 -436 -1128 -606 -29 -24 -58 -45 -64 -47 -5 -2 -38 -35 -72 -74 -81 -91
-121 -171 -121 -240 0 -53 0 -53 45 -74 72 -34 179 -29 307 12 167 55 552 204
637 247 9 4 36 16 61 25 25 10 68 28 95 40 28 12 75 32 105 45 30 12 63 26 73
31 10 6 60 28 110 50 352 155 998 488 1114 575 17 13 34 24 37 24 4 0 45 26
94 58 82 55 207 130 207 124 0 -3 75 28 120 49 31 14 230 59 261 59 16 0 50 3
75 6 47 6 215 -18 230 -33 49 -49 -467 -488 -781 -665 -25 -14 -72 -42 -104
-62 -33 -20 -64 -36 -69 -36 -4 0 -23 -11 -40 -24 -59 -45 -173 -104 -397
-208 -36 -17 -135 -58 -220 -93 -344 -140 -390 -159 -510 -220 -157 -78 -400
-211 -597 -326 -84 -49 -157 -89 -162 -89 -5 0 -11 -4 -13 -9 -1 -4 -41 -32
-88 -61 -119 -74 -445 -294 -460 -310 -3 -3 -34 -28 -69 -55 -204 -157 -353
-323 -391 -436 l-18 -51 -69 84 c-231 276 -436 621 -548 921 -141 383 -199
793 -165 1177 47 522 247 1031 585 1486 611 823 1636 1450 2870 1758 659 164
1407 234 2085 196z m-2642 -4340 c-7 -11 -15 -20 -19 -20 -3 0 -14 -8 -25 -18
-31 -28 -142 -112 -149 -112 -3 0 -11 -5 -18 -10 -53 -45 -73 -60 -80 -60 -7
0 -17 -7 -50 -36 -26 -23 -167 -114 -176 -114 -5 0 -11 -4 -13 -8 -4 -11 -234
-162 -246 -162 -6 0 -12 -4 -14 -8 -3 -9 -193 -132 -203 -132 -4 0 -21 -10
-38 -23 -40 -28 -37 -26 -239 -147 -186 -112 -437 -250 -454 -250 -6 0 -33
-12 -60 -27 l-49 -27 29 34 c50 60 106 120 113 120 4 0 23 15 43 34 149 143
592 440 970 651 96 54 195 110 220 124 25 14 47 26 50 26 3 1 34 16 70 35 110
57 314 149 333 149 15 1 15 -2 5 -19z"/>
</g>
</svg>
