<?xml version="1.0" encoding="UTF-8"?>
<!DOCTYPE svg PUBLIC "-//W3C//DTD SVG 1.1//EN" "http://www.w3.org/Graphics/SVG/1.1/DTD/svg11.dtd">
<svg xmlns="http://www.w3.org/2000/svg" version="1.1" width="1081px" height="1064px" style="shape-rendering:geometricPrecision; text-rendering:geometricPrecision; image-rendering:optimizeQuality; fill-rule:evenodd; clip-rule:evenodd" xmlns:xlink="http://www.w3.org/1999/xlink">
<g><path style="opacity:1" fill="#fbfa9f" d="M 117.5,775.5 C 122.5,774.833 127.5,774.167 132.5,773.5C 134.415,773.784 136.081,773.451 137.5,772.5C 143.331,771.725 148.998,770.225 154.5,768C 161.408,765.871 167.741,762.705 173.5,758.5C 175.403,758.204 177.07,757.537 178.5,756.5C 184.998,754.423 190.665,751.09 195.5,746.5C 196.873,746.657 198.207,746.49 199.5,746C 219.33,734.316 238.996,722.482 258.5,710.5C 269.397,704.583 279.73,697.916 289.5,690.5C 292.738,689.262 295.738,687.596 298.5,685.5C 307.8,679.523 316.8,673.19 325.5,666.5C 333.049,662.61 340.049,657.944 346.5,652.5C 356.722,646.606 366.389,639.94 375.5,632.5C 381.049,629.944 386.049,626.61 390.5,622.5C 403.377,615.28 415.711,607.28 427.5,598.5C 432.037,596.07 436.37,593.403 440.5,590.5C 450.983,584.757 460.983,578.257 470.5,571C 480.522,565.993 490.189,560.493 499.5,554.5C 507.363,550.736 515.03,546.736 522.5,542.5C 523.959,542.567 525.292,542.234 526.5,541.5C 530.299,540.579 533.632,538.912 536.5,536.5C 537.873,536.657 539.207,536.49 540.5,536C 549.062,531.941 557.728,528.107 566.5,524.5C 575.004,522.117 583.004,518.784 590.5,514.5C 592.898,514.741 594.898,514.074 596.5,512.5C 599.994,511.465 603.327,510.132 606.5,508.5C 610.383,507.541 614.05,506.208 617.5,504.5C 626.441,501.689 635.108,498.355 643.5,494.5C 651.698,491.668 660.032,488.835 668.5,486C 669.056,485.617 669.389,485.117 669.5,484.5C 672.495,484.706 675.162,484.04 677.5,482.5C 681.784,481.739 685.784,480.405 689.5,478.5C 691.38,478.771 692.713,478.104 693.5,476.5C 702.818,474.613 711.818,471.947 720.5,468.5C 722.786,468.405 724.786,467.738 726.5,466.5C 727.391,465.89 728.391,465.557 729.5,465.5C 737.773,463.769 745.773,461.435 753.5,458.5C 760.733,456.945 767.733,454.945 774.5,452.5C 780.233,451.312 785.9,449.812 791.5,448C 792.056,447.617 792.389,447.117 792.5,446.5C 796.16,446.841 799.493,446.175 802.5,444.5C 804.099,444.768 805.432,444.434 806.5,443.5C 810.427,443.074 814.093,442.074 817.5,440.5C 820.152,440.59 822.485,439.924 824.5,438.5C 829.809,437.924 834.809,436.591 839.5,434.5C 842.428,434.435 845.095,433.768 847.5,432.5C 850.781,432.58 853.781,431.913 856.5,430.5C 858.415,430.784 860.081,430.451 861.5,429.5C 867.853,428.53 874.186,427.363 880.5,426C 881.056,425.617 881.389,425.117 881.5,424.5C 889.506,424.429 897.173,423.096 904.5,420.5C 905.919,419.549 907.585,419.216 909.5,419.5C 926.659,416.835 943.659,413.335 960.5,409C 962.32,408.8 963.653,407.966 964.5,406.5C 965.167,406.5 965.833,406.5 966.5,406.5C 970.57,405.644 974.57,404.477 978.5,403C 979.756,402.583 980.423,401.75 980.5,400.5C 982.199,400.66 983.866,400.494 985.5,400C 986.351,396.526 985.517,393.36 983,390.5C 977.792,386.254 971.792,384.254 965,384.5C 956.642,384.98 948.475,386.48 940.5,389C 917.729,395.577 895.062,402.077 872.5,408.5C 856.616,412.798 840.95,417.465 825.5,422.5C 825.167,422.5 824.833,422.5 824.5,422.5C 806.208,427.235 788.208,432.568 770.5,438.5C 736.225,448.403 702.225,459.237 668.5,471C 667.944,471.383 667.611,471.883 667.5,472.5C 657.656,474.772 648.323,478.105 639.5,482.5C 628.249,485.136 617.583,489.136 607.5,494.5C 606.5,494.5 605.5,494.5 604.5,494.5C 580.447,504.962 555.781,513.628 530.5,520.5C 532.018,513.108 533.851,505.775 536,498.5C 537.463,490.222 535.296,483.055 529.5,477C 525.051,473.111 520.051,470.278 514.5,468.5C 509.869,466.284 504.869,465.117 499.5,465C 492.805,465.172 486.138,465.005 479.5,464.5C 483.855,459.813 488.188,455.146 492.5,450.5C 504.723,441.885 516.39,432.552 527.5,422.5C 531.122,420.213 534.455,417.547 537.5,414.5C 543.227,409.776 548.227,404.442 552.5,398.5C 570.795,383.227 579.295,363.561 578,339.5C 576.463,335.771 574.963,332.105 573.5,328.5C 562.615,322.345 550.949,320.511 538.5,323C 519.735,326.905 501.735,332.738 484.5,340.5C 461.987,350.09 439.987,360.756 418.5,372.5C 405.504,378.996 392.837,385.996 380.5,393.5C 379.609,394.11 378.609,394.443 377.5,394.5C 355.158,408.002 333.158,422.002 311.5,436.5C 308.669,437.079 306.336,438.412 304.5,440.5C 298.203,443.797 292.536,447.797 287.5,452.5C 274.071,459.719 261.071,467.719 248.5,476.5C 232.199,487.477 216.199,498.81 200.5,510.5C 197.568,511.8 195.234,513.8 193.5,516.5C 182.551,524.451 172.218,533.117 162.5,542.5C 159.474,545.195 156.474,547.862 153.5,550.5C 141.865,560.467 130.865,571.134 120.5,582.5C 113.442,588.556 107.109,595.222 101.5,602.5C 88.338,615.322 76.6713,629.322 66.5,644.5C 64.0116,647.466 62.0116,650.799 60.5,654.5C 56.7464,659.932 55.4131,665.932 56.5,672.5C 57.5,672 58.5,671.5 59.5,671C 77.6729,653.994 95.3396,636.494 112.5,618.5C 117.486,614.845 122.153,610.845 126.5,606.5C 133.429,601.87 139.763,596.536 145.5,590.5C 146.492,590.672 147.158,590.338 147.5,589.5C 157.479,582.183 167.146,574.517 176.5,566.5C 181.527,563.655 186.194,560.321 190.5,556.5C 208.193,544.463 225.859,532.463 243.5,520.5C 248.197,518.822 252.197,516.156 255.5,512.5C 257.153,512.34 258.486,511.674 259.5,510.5C 267.144,506.01 274.81,501.51 282.5,497C 285.42,495.054 288.087,492.887 290.5,490.5C 300.527,485.926 310.194,480.592 319.5,474.5C 325.339,471.415 331.006,468.082 336.5,464.5C 337.605,463.4 338.938,462.733 340.5,462.5C 348.875,457.764 357.209,453.098 365.5,448.5C 378.994,441.904 391.994,434.571 404.5,426.5C 411.442,423.696 418.109,420.362 424.5,416.5C 433.812,412.847 442.479,408.18 450.5,402.5C 450.833,402.5 451.167,402.5 451.5,402.5C 458.863,399.982 466.196,397.148 473.5,394C 475.324,393.34 476.657,392.173 477.5,390.5C 480.188,390.834 482.521,390.168 484.5,388.5C 489.196,387.246 493.529,385.246 497.5,382.5C 500.639,380.872 503.972,379.539 507.5,378.5C 508.521,379.002 508.688,379.668 508,380.5C 496.574,392.429 484.741,403.763 472.5,414.5C 465.52,419.484 458.854,424.817 452.5,430.5C 430.304,447.865 407.97,465.032 385.5,482C 372.31,489 358.643,494.5 344.5,498.5C 321.575,503.8 299.908,511.8 279.5,522.5C 267.924,525.787 256.924,530.454 246.5,536.5C 236.409,540.38 226.742,545.046 217.5,550.5C 217.167,550.5 216.833,550.5 216.5,550.5C 202.292,557.738 188.625,565.738 175.5,574.5C 162.076,582.639 150.576,592.972 141,605.5C 132.2,621.714 136.7,630.047 154.5,630.5C 158.777,630.663 162.777,629.997 166.5,628.5C 170.784,627.739 174.784,626.405 178.5,624.5C 183.554,623.803 187.887,621.803 191.5,618.5C 194.754,618.793 197.754,618.126 200.5,616.5C 206.559,614.425 212.559,612.259 218.5,610C 220.324,609.34 221.657,608.173 222.5,606.5C 225.108,606.6 227.442,605.933 229.5,604.5C 234.478,603.068 239.144,601.068 243.5,598.5C 247.137,597.737 250.47,596.403 253.5,594.5C 256.706,593.546 259.706,592.213 262.5,590.5C 270.262,587.417 277.929,584.25 285.5,581C 286.381,580.292 287.047,579.458 287.5,578.5C 291.293,578.269 294.626,576.935 297.5,574.5C 300.912,573.958 303.912,572.625 306.5,570.5C 307.5,570.167 308.167,569.5 308.5,568.5C 313.88,567.305 318.88,565.305 323.5,562.5C 330.205,559.147 336.872,555.814 343.5,552.5C 344.167,552.5 344.5,552.167 344.5,551.5C 348.151,550.341 351.485,548.674 354.5,546.5C 355.71,546.068 356.71,545.401 357.5,544.5C 363.954,542.442 369.621,539.109 374.5,534.5C 377.691,533.908 380.691,532.741 383.5,531C 390.425,525.884 397.425,521.05 404.5,516.5C 408.173,515 411.506,513 414.5,510.5C 416.969,509.431 419.302,508.098 421.5,506.5C 424.912,505.958 427.912,504.625 430.5,502.5C 433.542,502.267 436.208,501.267 438.5,499.5C 454.508,494.536 470.841,492.869 487.5,494.5C 489.343,495.283 491.343,495.95 493.5,496.5C 494.298,496.957 494.631,497.624 494.5,498.5C 483.464,511.87 471.131,523.87 457.5,534.5C 448.862,540.49 440.196,546.49 431.5,552.5C 422.13,558.514 412.797,564.514 403.5,570.5C 391.388,578.102 378.721,584.769 365.5,590.5C 358.38,593.858 351.38,597.191 344.5,600.5C 335.873,603.808 327.206,607.142 318.5,610.5C 309.318,614.261 300.318,618.261 291.5,622.5C 290.508,622.328 289.842,622.662 289.5,623.5C 283.213,625.977 277.213,628.977 271.5,632.5C 269.973,632.427 268.973,633.094 268.5,634.5C 261.696,637.067 255.363,640.401 249.5,644.5C 239.668,649.582 230.001,654.915 220.5,660.5C 205.12,668.848 190.453,678.182 176.5,688.5C 172.975,689.759 169.975,691.759 167.5,694.5C 159.45,698.857 152.116,704.191 145.5,710.5C 140.833,713.171 136.5,716.338 132.5,720C 130.294,722.037 128.294,724.203 126.5,726.5C 114.782,734.99 106.782,745.99 102.5,759.5C 59.4633,712.079 33.63,656.412 25,592.5C 19.0431,531.662 31.7098,474.995 63,422.5C 92.9001,374.597 131.067,334.43 177.5,302C 257.249,248.653 344.916,215.653 440.5,203C 559.398,186.988 675.065,199.655 787.5,241C 860.336,268.483 923.503,310.316 977,366.5C 1009.94,403.028 1033.61,445.028 1048,492.5C 1068.75,579.429 1053.08,659.095 1001,731.5C 955.1,791.401 897.934,837.234 829.5,869C 726.277,915.883 617.944,936.55 504.5,931C 398.91,926.354 300.244,898.021 208.5,846C 175.433,826.109 145.1,802.609 117.5,775.5 Z"/></g>
<g><path style="opacity:1" fill="#2e3191" d="M 552.5,398.5 C 549.892,399.685 547.559,401.352 545.5,403.5C 542.397,406.923 539.73,410.59 537.5,414.5C 534.455,417.547 531.122,420.213 527.5,422.5C 522.977,422.973 520.643,420.973 520.5,416.5C 518.334,416.421 516.334,415.754 514.5,414.5C 513.833,414.833 513.167,415.167 512.5,415.5C 514.005,416.842 514.672,418.508 514.5,420.5C 511.856,420.16 509.523,420.827 507.5,422.5C 506.881,425.032 505.881,427.365 504.5,429.5C 506.607,432.275 506.941,435.275 505.5,438.5C 503.119,440.392 500.453,440.892 497.5,440C 499.26,439.035 499.594,437.868 498.5,436.5C 497.194,439.457 495.194,441.791 492.5,443.5C 493.415,444.328 494.081,445.328 494.5,446.5C 493.775,447.867 493.108,449.2 492.5,450.5C 487.299,453.688 482.632,457.688 478.5,462.5C 477.571,463.689 477.238,465.022 477.5,466.5C 489.892,466.332 502.225,466.998 514.5,468.5C 520.051,470.278 525.051,473.111 529.5,477C 535.296,483.055 537.463,490.222 536,498.5C 533.851,505.775 532.018,513.108 530.5,520.5C 555.781,513.628 580.447,504.962 604.5,494.5C 605.035,497.238 604.035,499.072 601.5,500C 602.5,500.333 603.5,500.667 604.5,501C 603.663,502.011 603.33,503.178 603.5,504.5C 601.396,504.201 599.396,504.534 597.5,505.5C 596.272,507.321 594.606,508.321 592.5,508.5C 592.5,509.833 592.5,511.167 592.5,512.5C 593.833,512.5 595.167,512.5 596.5,512.5C 594.898,514.074 592.898,514.741 590.5,514.5C 581.797,517.282 573.131,520.116 564.5,523C 565.416,523.278 566.082,523.778 566.5,524.5C 557.728,528.107 549.062,531.941 540.5,536C 539.207,536.49 537.873,536.657 536.5,536.5C 532.284,536.608 528.951,538.274 526.5,541.5C 525.292,542.234 523.959,542.567 522.5,542.5C 518.464,543.223 514.464,544.223 510.5,545.5C 508.091,548.217 505.091,550.217 501.5,551.5C 500.388,552.265 499.721,553.265 499.5,554.5C 490.189,560.493 480.522,565.993 470.5,571C 460.983,578.257 450.983,584.757 440.5,590.5C 436.883,590.483 433.55,591.483 430.5,593.5C 428.722,594.726 427.722,596.393 427.5,598.5C 415.711,607.28 403.377,615.28 390.5,622.5C 386.129,624.629 381.795,626.962 377.5,629.5C 376.388,630.265 375.721,631.265 375.5,632.5C 366.389,639.94 356.722,646.606 346.5,652.5C 341.897,655.071 336.897,656.571 331.5,657C 330.167,658 330.167,659 331.5,660C 330.552,660.483 329.552,660.649 328.5,660.5C 328.5,661.833 328.5,663.167 328.5,664.5C 326.821,664.285 325.821,664.952 325.5,666.5C 324.022,666.238 322.689,666.571 321.5,667.5C 317.355,671.74 312.355,674.073 306.5,674.5C 305.764,679.003 303.098,681.67 298.5,682.5C 298.5,683.5 298.5,684.5 298.5,685.5C 295.738,687.596 292.738,689.262 289.5,690.5C 287.396,690.201 285.396,690.534 283.5,691.5C 281.597,693.562 279.263,694.896 276.5,695.5C 271.946,700.982 266.279,704.982 259.5,707.5C 258.873,708.417 258.539,709.417 258.5,710.5C 238.996,722.482 219.33,734.316 199.5,746C 198.207,746.49 196.873,746.657 195.5,746.5C 193.143,746.663 190.81,746.497 188.5,746C 189.458,744.853 189.125,743.853 187.5,743C 186.552,742.517 185.552,742.351 184.5,742.5C 184.5,743.833 184.5,745.167 184.5,746.5C 185.5,746.5 186.5,746.5 187.5,746.5C 187.5,747.833 187.5,749.167 187.5,750.5C 183.83,751.613 180.83,753.613 178.5,756.5C 177.07,757.537 175.403,758.204 173.5,758.5C 165.707,761.099 158.041,764.099 150.5,767.5C 145.526,767.882 141.193,769.548 137.5,772.5C 136.081,773.451 134.415,773.784 132.5,773.5C 126.131,773.653 119.797,773.32 113.5,772.5C 113.611,771.883 113.944,771.383 114.5,771C 112.744,770.798 111.078,770.298 109.5,769.5C 108.63,767.474 107.13,766.141 105,765.5C 103.526,758.127 105.693,752.127 111.5,747.5C 112.946,745.382 113.613,743.049 113.5,740.5C 115.807,740.014 117.973,740.014 120,740.5C 119.351,738.168 119.518,735.834 120.5,733.5C 122.045,732.548 123.712,732.215 125.5,732.5C 125.517,730.435 125.85,728.435 126.5,726.5C 129.767,725.887 132.767,724.554 135.5,722.5C 138.337,723.509 139.67,725.509 139.5,728.5C 137.167,728.5 134.833,728.5 132.5,728.5C 132.46,731.881 132.793,735.214 133.5,738.5C 130.084,737.894 127.418,738.894 125.5,741.5C 128.493,742.493 130.493,744.493 131.5,747.5C 132.333,747.833 133.167,748.167 134,748.5C 136.118,747.524 138.285,746.69 140.5,746C 141.823,745.184 142.489,744.017 142.5,742.5C 176.92,723.789 210.586,703.789 243.5,682.5C 248.017,682.6 251.017,680.6 252.5,676.5C 271.942,663.269 291.275,649.769 310.5,636C 312.019,634.649 313.352,633.149 314.5,631.5C 313.833,631.167 313.167,630.833 312.5,630.5C 309.591,632.123 306.591,633.457 303.5,634.5C 299.055,635.342 294.721,636.675 290.5,638.5C 289.5,638.167 288.5,637.833 287.5,637.5C 289.045,636.548 290.712,636.215 292.5,636.5C 292.5,635.167 292.5,633.833 292.5,632.5C 288.875,632.381 286.541,630.547 285.5,627C 286.793,626.51 288.127,626.343 289.5,626.5C 289.5,625.5 289.5,624.5 289.5,623.5C 289.842,622.662 290.508,622.328 291.5,622.5C 295.117,622.517 298.45,621.517 301.5,619.5C 305.107,618.511 308.774,618.177 312.5,618.5C 312.5,617.167 312.5,615.833 312.5,614.5C 315.554,614.646 317.554,613.313 318.5,610.5C 327.206,607.142 335.873,603.808 344.5,600.5C 346.924,600.808 349.257,600.474 351.5,599.5C 354.23,597.589 357.23,596.255 360.5,595.5C 362.888,594.446 364.555,592.779 365.5,590.5C 378.721,584.769 391.388,578.102 403.5,570.5C 408.184,569.061 412.851,567.395 417.5,565.5C 419.063,562.971 421.396,561.971 424.5,562.5C 424.5,561.167 424.5,559.833 424.5,558.5C 428.367,558.301 430.7,556.301 431.5,552.5C 440.196,546.49 448.862,540.49 457.5,534.5C 460.57,533.576 463.237,531.909 465.5,529.5C 467.045,528.548 468.712,528.215 470.5,528.5C 471.999,534.428 474.666,534.594 478.5,529C 478.043,528.586 477.709,528.086 477.5,527.5C 481.832,526.502 485.165,524.169 487.5,520.5C 488.167,522.5 488.833,524.5 489.5,526.5C 492.243,523.68 493.91,520.347 494.5,516.5C 492.669,515.948 491.003,515.948 489.5,516.5C 488.248,514.999 487.248,513.332 486.5,511.5C 489.447,510.679 492.447,510.179 495.5,510C 494.342,508.991 493.675,507.658 493.5,506C 494.608,503.059 495.941,500.226 497.5,497.5C 497.36,495.97 496.693,494.97 495.5,494.5C 492.833,494.5 490.167,494.5 487.5,494.5C 471.889,491.517 456.222,492.517 440.5,497.5C 439.757,498.182 439.091,498.849 438.5,499.5C 436.208,501.267 433.542,502.267 430.5,502.5C 426.777,502.534 423.777,503.867 421.5,506.5C 419.302,508.098 416.969,509.431 414.5,510.5C 412.396,510.201 410.396,510.534 408.5,511.5C 407.233,513.317 405.9,514.984 404.5,516.5C 397.425,521.05 390.425,525.884 383.5,531C 380.691,532.741 377.691,533.908 374.5,534.5C 370.188,536.984 365.522,538.317 360.5,538.5C 360.5,539.833 360.5,541.167 360.5,542.5C 358.821,542.285 357.821,542.952 357.5,544.5C 356.71,545.401 355.71,546.068 354.5,546.5C 350.284,546.608 346.951,548.274 344.5,551.5C 344.5,552.167 344.167,552.5 343.5,552.5C 335.021,552.586 328.355,555.919 323.5,562.5C 320.428,562.183 317.428,562.516 314.5,563.5C 312.359,565.204 310.359,566.87 308.5,568.5C 308.167,569.5 307.5,570.167 306.5,570.5C 302.777,570.534 299.777,571.867 297.5,574.5C 294.626,576.935 291.293,578.269 287.5,578.5C 279.765,581.126 272.098,583.959 264.5,587C 263.695,588.113 263.028,589.279 262.5,590.5C 259.706,592.213 256.706,593.546 253.5,594.5C 249.394,594.304 246.061,595.637 243.5,598.5C 239.753,599.081 236.086,600.081 232.5,601.5C 231.007,602.141 230.007,603.141 229.5,604.5C 227.442,605.933 225.108,606.6 222.5,606.5C 217.994,607.94 213.327,608.774 208.5,609C 207.376,609.249 206.376,609.749 205.5,610.5C 206.167,610.833 206.833,611.167 207.5,611.5C 205.257,612.474 202.924,612.808 200.5,612.5C 200.5,613.833 200.5,615.167 200.5,616.5C 197.754,618.126 194.754,618.793 191.5,618.5C 189.723,618.786 188.056,619.453 186.5,620.5C 184.666,619.246 182.666,618.579 180.5,618.5C 180.386,620.718 179.72,622.718 178.5,624.5C 173.967,624.304 169.633,625.137 165.5,627C 166.056,627.383 166.389,627.883 166.5,628.5C 162.777,629.997 158.777,630.663 154.5,630.5C 136.7,630.047 132.2,621.714 141,605.5C 150.576,592.972 162.076,582.639 175.5,574.5C 179.533,573.713 183.533,572.713 187.5,571.5C 188.95,570.15 189.617,568.484 189.5,566.5C 191.604,566.201 193.604,566.534 195.5,567.5C 196.728,569.321 198.394,570.321 200.5,570.5C 200.84,567.856 200.173,565.523 198.5,563.5C 202.279,562.93 204.946,560.93 206.5,557.5C 208.833,556.833 211.167,556.167 213.5,555.5C 215.278,554.274 216.278,552.607 216.5,550.5C 216.833,550.5 217.167,550.5 217.5,550.5C 223.712,548.591 230.379,547.257 237.5,546.5C 237.296,541.852 239.629,539.519 244.5,539.5C 245.612,538.735 246.279,537.735 246.5,536.5C 256.924,530.454 267.924,525.787 279.5,522.5C 281.527,522.662 283.527,522.495 285.5,522C 285.167,521.667 284.833,521.333 284.5,521C 298.661,515.29 313.327,512.123 328.5,511.5C 330.5,510.833 332.5,510.167 334.5,509.5C 332.041,507.95 331.374,505.95 332.5,503.5C 336.824,502.053 340.824,500.386 344.5,498.5C 358.643,494.5 372.31,489 385.5,482C 407.97,465.032 430.304,447.865 452.5,430.5C 455.582,429.87 458.582,428.87 461.5,427.5C 463.391,426.689 464.724,425.356 465.5,423.5C 467.423,422.692 469.423,422.192 471.5,422C 470.552,421.517 469.552,421.351 468.5,421.5C 468.5,420.5 468.5,419.5 468.5,418.5C 471.142,418.512 472.475,417.179 472.5,414.5C 484.741,403.763 496.574,392.429 508,380.5C 508.688,379.668 508.521,379.002 507.5,378.5C 503.972,379.539 500.639,380.872 497.5,382.5C 493.753,383.081 490.086,384.081 486.5,385.5C 485.388,386.265 484.721,387.265 484.5,388.5C 482.521,390.168 480.188,390.834 477.5,390.5C 474.625,391.623 471.625,392.456 468.5,393C 468.833,393.333 469.167,393.667 469.5,394C 465.367,395.863 461.033,396.696 456.5,396.5C 456.5,397.833 456.5,399.167 456.5,400.5C 454.219,400.077 452.552,400.744 451.5,402.5C 451.167,402.5 450.833,402.5 450.5,402.5C 443.398,405.353 436.398,408.353 429.5,411.5C 427.591,413.08 425.925,414.747 424.5,416.5C 420.464,417.223 416.464,418.223 412.5,419.5C 409.602,421.747 406.935,424.08 404.5,426.5C 391.994,434.571 378.994,441.904 365.5,448.5C 361.055,449.342 356.721,450.675 352.5,452.5C 348.813,450.093 346.813,451.426 346.5,456.5C 341.839,455.832 339.839,457.832 340.5,462.5C 338.938,462.733 337.605,463.4 336.5,464.5C 331.165,465.999 326.165,468.333 321.5,471.5C 320.388,472.265 319.721,473.265 319.5,474.5C 310.194,480.592 300.527,485.926 290.5,490.5C 287.396,489.971 285.063,490.971 283.5,493.5C 275.516,499.211 267.183,504.378 258.5,509C 259.056,509.383 259.389,509.883 259.5,510.5C 258.486,511.674 257.153,512.34 255.5,512.5C 252.625,513.623 249.625,514.456 246.5,515C 244.84,516.488 243.84,518.321 243.5,520.5C 225.859,532.463 208.193,544.463 190.5,556.5C 188.396,556.201 186.396,556.534 184.5,557.5C 182.471,559.863 180.138,561.863 177.5,563.5C 176.873,564.417 176.539,565.417 176.5,566.5C 172.399,568.545 168.065,570.045 163.5,571C 162.809,572.067 162.309,573.234 162,574.5C 161.667,574.167 161.333,573.833 161,573.5C 160.626,574.416 160.126,575.25 159.5,576C 157.19,576.497 154.857,576.663 152.5,576.5C 152.261,578.467 152.594,580.301 153.5,582C 152.221,583.646 150.555,584.813 148.5,585.5C 147.754,586.736 147.421,588.07 147.5,589.5C 147.158,590.338 146.492,590.672 145.5,590.5C 143.289,590.967 141.289,591.967 139.5,593.5C 135.737,597.12 131.737,600.453 127.5,603.5C 126.873,604.417 126.539,605.417 126.5,606.5C 125.022,606.238 123.689,606.571 122.5,607.5C 118.753,610.908 115.42,614.574 112.5,618.5C 111.325,618.281 110.325,618.614 109.5,619.5C 94.1667,634.833 78.8333,650.167 63.5,665.5C 61.604,666.466 59.604,666.799 57.5,666.5C 59.3025,662.748 60.3025,658.748 60.5,654.5C 64.5181,652.477 66.5181,649.143 66.5,644.5C 76.6713,629.322 88.338,615.322 101.5,602.5C 104.379,601.564 106.712,599.897 108.5,597.5C 110.862,596.729 113.196,595.895 115.5,595C 113.838,591.503 114.838,589.003 118.5,587.5C 119.562,585.978 120.229,584.312 120.5,582.5C 123.761,581.425 127.095,580.425 130.5,579.5C 131.833,578.167 131.833,576.833 130.5,575.5C 133.77,574.241 135.437,571.908 135.5,568.5C 139.423,569.04 141.756,567.373 142.5,563.5C 144.045,562.548 145.712,562.215 147.5,562.5C 148.962,558.243 150.962,554.243 153.5,550.5C 156.474,547.862 159.474,545.195 162.5,542.5C 166.555,541.24 169.888,538.907 172.5,535.5C 174.743,534.526 177.076,534.192 179.5,534.5C 179.98,531.995 180.98,529.662 182.5,527.5C 186.657,524.194 190.324,520.528 193.5,516.5C 195.234,513.8 197.568,511.8 200.5,510.5C 202.604,510.799 204.604,510.466 206.5,509.5C 207.115,507.884 208.115,506.551 209.5,505.5C 213.992,503.394 217.992,500.727 221.5,497.5C 223.078,496.702 224.744,496.202 226.5,496C 227.337,494.989 227.67,493.822 227.5,492.5C 232.426,491.331 237.426,490.331 242.5,489.5C 241.626,487.253 241.292,484.92 241.5,482.5C 243.5,482.5 245.5,482.5 247.5,482.5C 247.517,480.435 247.85,478.435 248.5,476.5C 261.071,467.719 274.071,459.719 287.5,452.5C 290.343,452.083 293.01,451.083 295.5,449.5C 297.45,446.64 300.117,444.64 303.5,443.5C 304.127,442.583 304.461,441.583 304.5,440.5C 306.336,438.412 308.669,437.079 311.5,436.5C 315.106,436.789 318.606,436.456 322,435.5C 323.162,437.824 324.329,440.158 325.5,442.5C 326.167,441.833 326.833,441.167 327.5,440.5C 330.771,443.197 333.771,442.864 336.5,439.5C 333.58,436.014 330.413,435.68 327,438.5C 325.823,436.824 324.323,435.491 322.5,434.5C 321.571,433.311 321.238,431.978 321.5,430.5C 325.812,428.016 330.478,426.683 335.5,426.5C 335.649,422.678 337.649,420.345 341.5,419.5C 347.798,418.504 354.132,418.17 360.5,418.5C 360.643,416.738 360.309,415.071 359.5,413.5C 360.833,412.833 362.167,412.167 363.5,411.5C 362.675,410.614 361.675,410.281 360.5,410.5C 360.5,409.167 360.5,407.833 360.5,406.5C 362.766,406.141 364.599,406.808 366,408.5C 367.128,406.655 367.628,404.655 367.5,402.5C 369.821,402.229 371.821,402.896 373.5,404.5C 374.281,403.271 374.781,401.938 375,400.5C 375.333,401.167 375.667,401.833 376,402.5C 377.599,400.964 379.433,400.464 381.5,401C 381.167,401.333 380.833,401.667 380.5,402C 381.793,402.49 383.127,402.657 384.5,402.5C 384.657,401.127 384.49,399.793 384,398.5C 383.667,398.833 383.333,399.167 383,399.5C 380.72,398.914 378.553,398.08 376.5,397C 377.252,396.329 377.586,395.496 377.5,394.5C 378.609,394.443 379.609,394.11 380.5,393.5C 386.113,391.574 391.779,389.74 397.5,388C 403.257,382.609 409.924,378.442 417.5,375.5C 418.127,374.583 418.461,373.583 418.5,372.5C 422.249,372.383 425.916,371.716 429.5,370.5C 430.833,370.833 432.167,371.167 433.5,371.5C 432.41,372.609 432.41,373.609 433.5,374.5C 434.327,372.838 435.493,371.505 437,370.5C 437.495,368.527 437.662,366.527 437.5,364.5C 443.708,361.372 450.041,358.372 456.5,355.5C 459.768,354.513 463.102,354.18 466.5,354.5C 466.672,356.492 466.005,358.158 464.5,359.5C 466.739,363.609 468.406,363.443 469.5,359C 468.814,356.539 469.147,354.039 470.5,351.5C 473.415,350.192 475.748,348.192 477.5,345.5C 479.5,344.833 481.5,344.167 483.5,343.5C 484.127,342.583 484.461,341.583 484.5,340.5C 501.735,332.738 519.735,326.905 538.5,323C 550.949,320.511 562.615,322.345 573.5,328.5C 574.963,332.105 576.463,335.771 578,339.5C 579.295,363.561 570.795,383.227 552.5,398.5 Z"/></g>
<g><path style="opacity:0.459" fill="#14130d" d="M 113.5,773.5 C 115.062,773.733 116.395,774.4 117.5,775.5C 145.1,802.609 175.433,826.109 208.5,846C 300.244,898.021 398.91,926.354 504.5,931C 617.944,936.55 726.277,915.883 829.5,869C 897.934,837.234 955.1,791.401 1001,731.5C 1053.08,659.095 1068.75,579.429 1048,492.5C 1033.61,445.028 1009.94,403.028 977,366.5C 923.503,310.316 860.336,268.483 787.5,241C 675.065,199.655 559.398,186.988 440.5,203C 344.916,215.653 257.249,248.653 177.5,302C 131.067,334.43 92.9001,374.597 63,422.5C 31.7098,474.995 19.0431,531.662 25,592.5C 33.63,656.412 59.4633,712.079 102.5,759.5C 102.5,760.167 102.5,760.833 102.5,761.5C 42.6092,696.668 16.4426,620.001 24,531.5C 31.4095,478.903 51.0762,431.57 83,389.5C 122.02,340.136 169.187,300.636 224.5,271C 323.449,219.43 428.782,194.264 540.5,195.5C 652.216,194.263 757.55,219.43 856.5,271C 911.813,300.636 958.98,340.136 998,389.5C 1062.98,477.054 1075.65,571.72 1036,673.5C 1013.04,723.229 980.541,765.729 938.5,801C 875.51,851.998 804.51,887.998 725.5,909C 628.937,934.223 531.27,939.556 432.5,925C 339.941,911.861 254.941,879.528 177.5,828C 154.794,811.475 133.461,793.309 113.5,773.5 Z"/></g>
<g><path style="opacity:1" fill="#353583" d="M 484.5,340.5 C 484.461,341.583 484.127,342.583 483.5,343.5C 481.5,344.167 479.5,344.833 477.5,345.5C 475.748,348.192 473.415,350.192 470.5,351.5C 469.147,354.039 468.814,356.539 469.5,359C 468.406,363.443 466.739,363.609 464.5,359.5C 466.005,358.158 466.672,356.492 466.5,354.5C 463.102,354.18 459.768,354.513 456.5,355.5C 450.041,358.372 443.708,361.372 437.5,364.5C 437.662,366.527 437.495,368.527 437,370.5C 435.493,371.505 434.327,372.838 433.5,374.5C 432.41,373.609 432.41,372.609 433.5,371.5C 432.167,371.167 430.833,370.833 429.5,370.5C 425.916,371.716 422.249,372.383 418.5,372.5C 439.987,360.756 461.987,350.09 484.5,340.5 Z"/></g>
<g><path style="opacity:1" fill="#3a3880" d="M 418.5,372.5 C 418.461,373.583 418.127,374.583 417.5,375.5C 409.924,378.442 403.257,382.609 397.5,388C 391.779,389.74 386.113,391.574 380.5,393.5C 392.837,385.996 405.504,378.996 418.5,372.5 Z"/></g>
<g><path style="opacity:1" fill="#514e86" d="M 497.5,382.5 C 493.529,385.246 489.196,387.246 484.5,388.5C 484.721,387.265 485.388,386.265 486.5,385.5C 490.086,384.081 493.753,383.081 497.5,382.5 Z"/></g>
<g><path style="opacity:1" fill="#4d4b83" d="M 477.5,390.5 C 476.657,392.173 475.324,393.34 473.5,394C 466.196,397.148 458.863,399.982 451.5,402.5C 452.552,400.744 454.219,400.077 456.5,400.5C 456.5,399.167 456.5,397.833 456.5,396.5C 461.033,396.696 465.367,395.863 469.5,394C 469.167,393.667 468.833,393.333 468.5,393C 471.625,392.456 474.625,391.623 477.5,390.5 Z"/></g>
<g><path style="opacity:1" fill="#45447e" d="M 552.5,398.5 C 548.227,404.442 543.227,409.776 537.5,414.5C 539.73,410.59 542.397,406.923 545.5,403.5C 547.559,401.352 549.892,399.685 552.5,398.5 Z"/></g>
<g><path style="opacity:1" fill="#5d5688" d="M 980.5,400.5 C 980.423,401.75 979.756,402.583 978.5,403C 974.57,404.477 970.57,405.644 966.5,406.5C 970.686,403.758 975.353,401.758 980.5,400.5 Z"/></g>
<g><path style="opacity:1" fill="#2f318f" d="M 980.5,400.5 C 975.353,401.758 970.686,403.758 966.5,406.5C 965.833,406.5 965.167,406.5 964.5,406.5C 958.265,407.843 951.932,408.676 945.5,409C 946.5,409.333 947.5,409.667 948.5,410C 945.511,410.33 942.678,411.164 940,412.5C 937.562,411.034 935.395,411.368 933.5,413.5C 926.093,414.434 918.76,415.768 911.5,417.5C 910.757,418.182 910.091,418.849 909.5,419.5C 907.585,419.216 905.919,419.549 904.5,420.5C 897.113,420.786 889.78,421.62 882.5,423C 881.944,423.383 881.611,423.883 881.5,424.5C 876.123,424.881 870.79,425.547 865.5,426.5C 862.813,426.664 860.146,426.497 857.5,426C 856.663,424.989 856.33,423.822 856.5,422.5C 852.833,422.5 849.167,422.5 845.5,422.5C 845.67,421.178 845.337,420.011 844.5,419C 848.305,417.215 852.305,416.382 856.5,416.5C 856.5,417.833 856.5,419.167 856.5,420.5C 862.868,420.83 869.202,420.496 875.5,419.5C 874.5,418.833 873.5,418.167 872.5,417.5C 868.5,416.833 864.5,416.167 860.5,415.5C 860.833,414.833 861.167,414.167 861.5,413.5C 864.167,412.833 866.833,412.167 869.5,411.5C 870.993,410.859 871.993,409.859 872.5,408.5C 895.062,402.077 917.729,395.577 940.5,389C 948.475,386.48 956.642,384.98 965,384.5C 971.792,384.254 977.792,386.254 983,390.5C 985.517,393.36 986.351,396.526 985.5,400C 983.866,400.494 982.199,400.66 980.5,400.5 Z"/></g>
<g><path style="opacity:1" fill="#4f4d80" d="M 450.5,402.5 C 442.479,408.18 433.812,412.847 424.5,416.5C 425.925,414.747 427.591,413.08 429.5,411.5C 436.398,408.353 443.398,405.353 450.5,402.5 Z"/></g>
<g><path style="opacity:1" fill="#585587" d="M 964.5,406.5 C 963.653,407.966 962.32,408.8 960.5,409C 943.659,413.335 926.659,416.835 909.5,419.5C 910.091,418.849 910.757,418.182 911.5,417.5C 918.76,415.768 926.093,414.434 933.5,413.5C 935.395,411.368 937.562,411.034 940,412.5C 942.678,411.164 945.511,410.33 948.5,410C 947.5,409.667 946.5,409.333 945.5,409C 951.932,408.676 958.265,407.843 964.5,406.5 Z"/></g>
<g><path style="opacity:1" fill="#413b80" d="M 472.5,414.5 C 472.475,417.179 471.142,418.512 468.5,418.5C 468.5,419.5 468.5,420.5 468.5,421.5C 469.552,421.351 470.552,421.517 471.5,422C 469.423,422.192 467.423,422.692 465.5,423.5C 464.724,425.356 463.391,426.689 461.5,427.5C 458.582,428.87 455.582,429.87 452.5,430.5C 458.854,424.817 465.52,419.484 472.5,414.5 Z"/></g>
<g><path style="opacity:1" fill="#323486" d="M 872.5,408.5 C 871.993,409.859 870.993,410.859 869.5,411.5C 866.833,412.167 864.167,412.833 861.5,413.5C 861.167,414.167 860.833,414.833 860.5,415.5C 864.5,416.167 868.5,416.833 872.5,417.5C 873.5,418.167 874.5,418.833 875.5,419.5C 869.202,420.496 862.868,420.83 856.5,420.5C 856.5,419.167 856.5,417.833 856.5,416.5C 852.305,416.382 848.305,417.215 844.5,419C 845.337,420.011 845.67,421.178 845.5,422.5C 849.167,422.5 852.833,422.5 856.5,422.5C 856.33,423.822 856.663,424.989 857.5,426C 860.146,426.497 862.813,426.664 865.5,426.5C 864.552,427.978 863.219,428.978 861.5,429.5C 860.081,430.451 858.415,430.784 856.5,430.5C 854.833,430.5 853.167,430.5 851.5,430.5C 851.539,429.417 851.873,428.417 852.5,427.5C 851.5,426.5 850.5,425.5 849.5,424.5C 846.681,424.742 843.681,424.742 840.5,424.5C 840.5,423.167 840.5,421.833 840.5,420.5C 835.606,421.811 830.606,422.477 825.5,422.5C 840.95,417.465 856.616,412.798 872.5,408.5 Z"/></g>
<g><path style="opacity:1" fill="#59548b" d="M 904.5,420.5 C 897.173,423.096 889.506,424.429 881.5,424.5C 881.611,423.883 881.944,423.383 882.5,423C 889.78,421.62 897.113,420.786 904.5,420.5 Z"/></g>
<g><path style="opacity:1" fill="#36358a" d="M 527.5,422.5 C 516.39,432.552 504.723,441.885 492.5,450.5C 493.108,449.2 493.775,447.867 494.5,446.5C 494.081,445.328 493.415,444.328 492.5,443.5C 495.194,441.791 497.194,439.457 498.5,436.5C 499.594,437.868 499.26,439.035 497.5,440C 500.453,440.892 503.119,440.392 505.5,438.5C 506.941,435.275 506.607,432.275 504.5,429.5C 505.881,427.365 506.881,425.032 507.5,422.5C 509.523,420.827 511.856,420.16 514.5,420.5C 514.672,418.508 514.005,416.842 512.5,415.5C 513.167,415.167 513.833,414.833 514.5,414.5C 516.334,415.754 518.334,416.421 520.5,416.5C 520.643,420.973 522.977,422.973 527.5,422.5 Z"/></g>
<g><path style="opacity:1" fill="#4a4981" d="M 424.5,416.5 C 418.109,420.362 411.442,423.696 404.5,426.5C 406.935,424.08 409.602,421.747 412.5,419.5C 416.464,418.223 420.464,417.223 424.5,416.5 Z"/></g>
<g><path style="opacity:1" fill="#605c83" d="M 881.5,424.5 C 881.389,425.117 881.056,425.617 880.5,426C 874.186,427.363 867.853,428.53 861.5,429.5C 863.219,428.978 864.552,427.978 865.5,426.5C 870.79,425.547 876.123,424.881 881.5,424.5 Z"/></g>
<g><path style="opacity:1" fill="#636283" d="M 851.5,430.5 C 853.167,430.5 854.833,430.5 856.5,430.5C 853.781,431.913 850.781,432.58 847.5,432.5C 848.183,430.824 849.517,430.157 851.5,430.5 Z"/></g>
<g><path style="opacity:1" fill="#333484" d="M 824.5,422.5 C 823.993,423.859 822.993,424.859 821.5,425.5C 818.215,426.324 814.882,426.824 811.5,427C 812.641,427.741 812.641,428.575 811.5,429.5C 810.311,430.429 808.978,430.762 807.5,430.5C 807.5,431.833 807.5,433.167 807.5,434.5C 808.675,434.281 809.675,434.614 810.5,435.5C 802.936,436.827 795.436,436.494 788,434.5C 782.259,436.361 776.426,437.694 770.5,438.5C 788.208,432.568 806.208,427.235 824.5,422.5 Z"/></g>
<g><path style="opacity:1" fill="#5c5987" d="M 847.5,432.5 C 845.095,433.768 842.428,434.435 839.5,434.5C 838.708,433.033 838.708,431.7 839.5,430.5C 841.868,432.223 844.534,432.89 847.5,432.5 Z"/></g>
<g><path style="opacity:1" fill="#343589" d="M 377.5,394.5 C 377.586,395.496 377.252,396.329 376.5,397C 378.553,398.08 380.72,398.914 383,399.5C 383.333,399.167 383.667,398.833 384,398.5C 384.49,399.793 384.657,401.127 384.5,402.5C 383.127,402.657 381.793,402.49 380.5,402C 380.833,401.667 381.167,401.333 381.5,401C 379.433,400.464 377.599,400.964 376,402.5C 375.667,401.833 375.333,401.167 375,400.5C 374.781,401.938 374.281,403.271 373.5,404.5C 371.821,402.896 369.821,402.229 367.5,402.5C 367.628,404.655 367.128,406.655 366,408.5C 364.599,406.808 362.766,406.141 360.5,406.5C 360.5,407.833 360.5,409.167 360.5,410.5C 361.675,410.281 362.675,410.614 363.5,411.5C 362.167,412.167 360.833,412.833 359.5,413.5C 360.309,415.071 360.643,416.738 360.5,418.5C 354.132,418.17 347.798,418.504 341.5,419.5C 337.649,420.345 335.649,422.678 335.5,426.5C 330.478,426.683 325.812,428.016 321.5,430.5C 321.238,431.978 321.571,433.311 322.5,434.5C 324.323,435.491 325.823,436.824 327,438.5C 330.413,435.68 333.58,436.014 336.5,439.5C 333.771,442.864 330.771,443.197 327.5,440.5C 326.833,441.167 326.167,441.833 325.5,442.5C 324.329,440.158 323.162,437.824 322,435.5C 318.606,436.456 315.106,436.789 311.5,436.5C 333.158,422.002 355.158,408.002 377.5,394.5 Z"/></g>
<g><path style="opacity:1" fill="#504a87" d="M 839.5,434.5 C 834.809,436.591 829.809,437.924 824.5,438.5C 824.574,436.589 825.574,435.422 827.5,435C 831.486,434.501 835.486,434.334 839.5,434.5 Z"/></g>
<g><path style="opacity:1" fill="#777292" d="M 824.5,438.5 C 822.485,439.924 820.152,440.59 817.5,440.5C 819.279,438.656 821.612,437.99 824.5,438.5 Z"/></g>
<g><path style="opacity:1" fill="#6a6489" d="M 817.5,440.5 C 814.093,442.074 810.427,443.074 806.5,443.5C 807.263,442.732 808.263,442.232 809.5,442C 808.833,441.667 808.167,441.333 807.5,441C 810.817,440.502 814.15,440.335 817.5,440.5 Z"/></g>
<g><path style="opacity:1" fill="#2f3190" d="M 851.5,430.5 C 849.517,430.157 848.183,430.824 847.5,432.5C 844.534,432.89 841.868,432.223 839.5,430.5C 838.708,431.7 838.708,433.033 839.5,434.5C 835.486,434.334 831.486,434.501 827.5,435C 825.574,435.422 824.574,436.589 824.5,438.5C 821.612,437.99 819.279,438.656 817.5,440.5C 814.15,440.335 810.817,440.502 807.5,441C 808.167,441.333 808.833,441.667 809.5,442C 808.263,442.232 807.263,442.732 806.5,443.5C 805.432,444.434 804.099,444.768 802.5,444.5C 798.671,443.931 795.337,444.598 792.5,446.5C 786.99,446.83 781.657,446.164 776.5,444.5C 777.145,447.547 776.145,449.713 773.5,451C 774.056,451.383 774.389,451.883 774.5,452.5C 771.813,452.336 769.146,452.503 766.5,453C 761.818,454.382 757.485,456.215 753.5,458.5C 746.01,459.138 738.677,460.638 731.5,463C 731.833,463.333 732.167,463.667 732.5,464C 731.263,464.232 730.263,464.732 729.5,465.5C 728.391,465.557 727.391,465.89 726.5,466.5C 723.918,466.025 721.918,466.692 720.5,468.5C 717.753,468.187 715.086,468.52 712.5,469.5C 705.806,471.502 699.473,473.835 693.5,476.5C 692.713,478.104 691.38,478.771 689.5,478.5C 686.753,478.187 684.086,478.52 681.5,479.5C 679.668,480.057 678.335,481.057 677.5,482.5C 675.162,484.04 672.495,484.706 669.5,484.5C 665.364,484.308 661.364,484.974 657.5,486.5C 653.461,485.436 651.794,482.77 652.5,478.5C 654.124,478.64 655.29,477.973 656,476.5C 658.555,478.65 661.388,478.983 664.5,477.5C 663.5,476.833 662.5,476.167 661.5,475.5C 663.975,475.036 665.975,474.036 667.5,472.5C 667.611,471.883 667.944,471.383 668.5,471C 702.225,459.237 736.225,448.403 770.5,438.5C 776.426,437.694 782.259,436.361 788,434.5C 795.436,436.494 802.936,436.827 810.5,435.5C 809.675,434.614 808.675,434.281 807.5,434.5C 807.5,433.167 807.5,431.833 807.5,430.5C 808.978,430.762 810.311,430.429 811.5,429.5C 812.641,428.575 812.641,427.741 811.5,427C 814.882,426.824 818.215,426.324 821.5,425.5C 822.993,424.859 823.993,423.859 824.5,422.5C 824.833,422.5 825.167,422.5 825.5,422.5C 830.606,422.477 835.606,421.811 840.5,420.5C 840.5,421.833 840.5,423.167 840.5,424.5C 843.681,424.742 846.681,424.742 849.5,424.5C 850.5,425.5 851.5,426.5 852.5,427.5C 851.873,428.417 851.539,429.417 851.5,430.5 Z"/></g>
<g><path style="opacity:1" fill="#434088" d="M 792.5,446.5 C 792.389,447.117 792.056,447.617 791.5,448C 785.9,449.812 780.233,451.312 774.5,452.5C 774.389,451.883 774.056,451.383 773.5,451C 776.145,449.713 777.145,447.547 776.5,444.5C 781.657,446.164 786.99,446.83 792.5,446.5 Z"/></g>
<g><path style="opacity:1" fill="#4b4982" d="M 802.5,444.5 C 799.493,446.175 796.16,446.841 792.5,446.5C 795.337,444.598 798.671,443.931 802.5,444.5 Z"/></g>
<g><path style="opacity:1" fill="#403d86" d="M 365.5,448.5 C 357.209,453.098 348.875,457.764 340.5,462.5C 339.839,457.832 341.839,455.832 346.5,456.5C 346.813,451.426 348.813,450.093 352.5,452.5C 356.721,450.675 361.055,449.342 365.5,448.5 Z"/></g>
<g><path style="opacity:1" fill="#3c3c7e" d="M 304.5,440.5 C 304.461,441.583 304.127,442.583 303.5,443.5C 300.117,444.64 297.45,446.64 295.5,449.5C 293.01,451.083 290.343,452.083 287.5,452.5C 292.536,447.797 298.203,443.797 304.5,440.5 Z"/></g>
<g><path style="opacity:1" fill="#635e89" d="M 774.5,452.5 C 767.733,454.945 760.733,456.945 753.5,458.5C 757.485,456.215 761.818,454.382 766.5,453C 769.146,452.503 771.813,452.336 774.5,452.5 Z"/></g>
<g><path style="opacity:1" fill="#605e7f" d="M 753.5,458.5 C 745.773,461.435 737.773,463.769 729.5,465.5C 730.263,464.732 731.263,464.232 732.5,464C 732.167,463.667 731.833,463.333 731.5,463C 738.677,460.638 746.01,459.138 753.5,458.5 Z"/></g>
<g><path style="opacity:1" fill="#3b3a79" d="M 492.5,450.5 C 488.188,455.146 483.855,459.813 479.5,464.5C 486.138,465.005 492.805,465.172 499.5,465C 504.869,465.117 509.869,466.284 514.5,468.5C 502.225,466.998 489.892,466.332 477.5,466.5C 477.238,465.022 477.571,463.689 478.5,462.5C 482.632,457.688 487.299,453.688 492.5,450.5 Z"/></g>
<g><path style="opacity:1" fill="#666486" d="M 726.5,466.5 C 724.786,467.738 722.786,468.405 720.5,468.5C 721.918,466.692 723.918,466.025 726.5,466.5 Z"/></g>
<g><path style="opacity:1" fill="#534f7c" d="M 336.5,464.5 C 331.006,468.082 325.339,471.415 319.5,474.5C 319.721,473.265 320.388,472.265 321.5,471.5C 326.165,468.333 331.165,465.999 336.5,464.5 Z"/></g>
<g><path style="opacity:1" fill="#544f80" d="M 720.5,468.5 C 711.818,471.947 702.818,474.613 693.5,476.5C 699.473,473.835 705.806,471.502 712.5,469.5C 715.086,468.52 717.753,468.187 720.5,468.5 Z"/></g>
<g><path style="opacity:1" fill="#5b5a84" d="M 689.5,478.5 C 685.784,480.405 681.784,481.739 677.5,482.5C 678.335,481.057 679.668,480.057 681.5,479.5C 684.086,478.52 686.753,478.187 689.5,478.5 Z"/></g>
<g><path style="opacity:1" fill="#383788" d="M 667.5,472.5 C 665.975,474.036 663.975,475.036 661.5,475.5C 662.5,476.167 663.5,476.833 664.5,477.5C 661.388,478.983 658.555,478.65 656,476.5C 655.29,477.973 654.124,478.64 652.5,478.5C 651.794,482.77 653.461,485.436 657.5,486.5C 661.364,484.974 665.364,484.308 669.5,484.5C 669.389,485.117 669.056,485.617 668.5,486C 660.032,488.835 651.698,491.668 643.5,494.5C 644.552,492.744 646.219,492.077 648.5,492.5C 648.5,491.167 648.5,489.833 648.5,488.5C 646.345,488.628 644.345,488.128 642.5,487C 644.411,485.504 646.411,484.171 648.5,483C 645.518,482.502 642.518,482.335 639.5,482.5C 648.323,478.105 657.656,474.772 667.5,472.5 Z"/></g>
<g><path style="opacity:1" fill="#35357a" d="M 639.5,482.5 C 639.279,483.735 638.612,484.735 637.5,485.5C 635.376,486.149 633.376,486.983 631.5,488C 623.981,491.051 615.981,493.218 607.5,494.5C 617.583,489.136 628.249,485.136 639.5,482.5 Z"/></g>
<g><path style="opacity:1" fill="#2f3192" d="M 639.5,482.5 C 642.518,482.335 645.518,482.502 648.5,483C 646.411,484.171 644.411,485.504 642.5,487C 644.345,488.128 646.345,488.628 648.5,488.5C 648.5,489.833 648.5,491.167 648.5,492.5C 646.219,492.077 644.552,492.744 643.5,494.5C 635.033,495.618 628.033,497.284 622.5,499.5C 620.961,501.408 619.294,503.075 617.5,504.5C 613.042,504.143 609.376,505.476 606.5,508.5C 603.327,510.132 599.994,511.465 596.5,512.5C 595.167,512.5 593.833,512.5 592.5,512.5C 592.5,511.167 592.5,509.833 592.5,508.5C 594.606,508.321 596.272,507.321 597.5,505.5C 599.396,504.534 601.396,504.201 603.5,504.5C 603.33,503.178 603.663,502.011 604.5,501C 603.5,500.667 602.5,500.333 601.5,500C 604.035,499.072 605.035,497.238 604.5,494.5C 605.5,494.5 606.5,494.5 607.5,494.5C 615.981,493.218 623.981,491.051 631.5,488C 633.376,486.983 635.376,486.149 637.5,485.5C 638.612,484.735 639.279,483.735 639.5,482.5 Z"/></g>
<g><path style="opacity:1" fill="#5e5b84" d="M 487.5,494.5 C 470.841,492.869 454.508,494.536 438.5,499.5C 439.091,498.849 439.757,498.182 440.5,497.5C 456.222,492.517 471.889,491.517 487.5,494.5 Z"/></g>
<g><path style="opacity:1" fill="#696a83" d="M 487.5,494.5 C 490.167,494.5 492.833,494.5 495.5,494.5C 495.768,496.099 495.434,497.432 494.5,498.5C 494.631,497.624 494.298,496.957 493.5,496.5C 491.343,495.95 489.343,495.283 487.5,494.5 Z"/></g>
<g><path style="opacity:1" fill="#3d3a81" d="M 248.5,476.5 C 247.85,478.435 247.517,480.435 247.5,482.5C 245.5,482.5 243.5,482.5 241.5,482.5C 241.292,484.92 241.626,487.253 242.5,489.5C 237.426,490.331 232.426,491.331 227.5,492.5C 227.67,493.822 227.337,494.989 226.5,496C 224.744,496.202 223.078,496.702 221.5,497.5C 217.992,500.727 213.992,503.394 209.5,505.5C 208.115,506.551 207.115,507.884 206.5,509.5C 204.604,510.466 202.604,510.799 200.5,510.5C 216.199,498.81 232.199,487.477 248.5,476.5 Z"/></g>
<g><path style="opacity:1" fill="#555086" d="M 643.5,494.5 C 635.108,498.355 626.441,501.689 617.5,504.5C 619.294,503.075 620.961,501.408 622.5,499.5C 628.033,497.284 635.033,495.618 643.5,494.5 Z"/></g>
<g><path style="opacity:1" fill="#585782" d="M 430.5,502.5 C 427.912,504.625 424.912,505.958 421.5,506.5C 423.777,503.867 426.777,502.534 430.5,502.5 Z"/></g>
<g><path style="opacity:1" fill="#4a497f" d="M 290.5,490.5 C 288.087,492.887 285.42,495.054 282.5,497C 274.81,501.51 267.144,506.01 259.5,510.5C 259.389,509.883 259.056,509.383 258.5,509C 267.183,504.378 275.516,499.211 283.5,493.5C 285.063,490.971 287.396,489.971 290.5,490.5 Z"/></g>
<g><path style="opacity:1" fill="#5f5c84" d="M 617.5,504.5 C 614.05,506.208 610.383,507.541 606.5,508.5C 609.376,505.476 613.042,504.143 617.5,504.5 Z"/></g>
<g><path style="opacity:1" fill="#333487" d="M 344.5,498.5 C 340.824,500.386 336.824,502.053 332.5,503.5C 331.374,505.95 332.041,507.95 334.5,509.5C 332.5,510.167 330.5,510.833 328.5,511.5C 313.327,512.123 298.661,515.29 284.5,521C 284.833,521.333 285.167,521.667 285.5,522C 283.527,522.495 281.527,522.662 279.5,522.5C 299.908,511.8 321.575,503.8 344.5,498.5 Z"/></g>
<g><path style="opacity:1" fill="#4d487f" d="M 414.5,510.5 C 411.506,513 408.173,515 404.5,516.5C 405.9,514.984 407.233,513.317 408.5,511.5C 410.396,510.534 412.396,510.201 414.5,510.5 Z"/></g>
<g><path style="opacity:1" fill="#474686" d="M 255.5,512.5 C 252.197,516.156 248.197,518.822 243.5,520.5C 243.84,518.321 244.84,516.488 246.5,515C 249.625,514.456 252.625,513.623 255.5,512.5 Z"/></g>
<g><path style="opacity:1" fill="#35368b" d="M 495.5,494.5 C 496.693,494.97 497.36,495.97 497.5,497.5C 495.941,500.226 494.608,503.059 493.5,506C 493.675,507.658 494.342,508.991 495.5,510C 492.447,510.179 489.447,510.679 486.5,511.5C 487.248,513.332 488.248,514.999 489.5,516.5C 491.003,515.948 492.669,515.948 494.5,516.5C 493.91,520.347 492.243,523.68 489.5,526.5C 488.833,524.5 488.167,522.5 487.5,520.5C 485.165,524.169 481.832,526.502 477.5,527.5C 477.709,528.086 478.043,528.586 478.5,529C 474.666,534.594 471.999,534.428 470.5,528.5C 468.712,528.215 467.045,528.548 465.5,529.5C 463.237,531.909 460.57,533.576 457.5,534.5C 471.131,523.87 483.464,511.87 494.5,498.5C 495.434,497.432 495.768,496.099 495.5,494.5 Z"/></g>
<g><path style="opacity:1" fill="#544f87" d="M 590.5,514.5 C 583.004,518.784 575.004,522.117 566.5,524.5C 566.082,523.778 565.416,523.278 564.5,523C 573.131,520.116 581.797,517.282 590.5,514.5 Z"/></g>
<g><path style="opacity:1" fill="#413e7c" d="M 193.5,516.5 C 190.324,520.528 186.657,524.194 182.5,527.5C 180.98,529.662 179.98,531.995 179.5,534.5C 177.076,534.192 174.743,534.526 172.5,535.5C 169.888,538.907 166.555,541.24 162.5,542.5C 172.218,533.117 182.551,524.451 193.5,516.5 Z"/></g>
<g><path style="opacity:1" fill="#54537f" d="M 536.5,536.5 C 533.632,538.912 530.299,540.579 526.5,541.5C 528.951,538.274 532.284,536.608 536.5,536.5 Z"/></g>
<g><path style="opacity:1" fill="#494581" d="M 374.5,534.5 C 369.621,539.109 363.954,542.442 357.5,544.5C 357.821,542.952 358.821,542.285 360.5,542.5C 360.5,541.167 360.5,539.833 360.5,538.5C 365.522,538.317 370.188,536.984 374.5,534.5 Z"/></g>
<g><path style="opacity:1" fill="#393782" d="M 246.5,536.5 C 246.279,537.735 245.612,538.735 244.5,539.5C 239.629,539.519 237.296,541.852 237.5,546.5C 230.379,547.257 223.712,548.591 217.5,550.5C 226.742,545.046 236.409,540.38 246.5,536.5 Z"/></g>
<g><path style="opacity:1" fill="#595781" d="M 354.5,546.5 C 351.485,548.674 348.151,550.341 344.5,551.5C 346.951,548.274 350.284,546.608 354.5,546.5 Z"/></g>
<g><path style="opacity:1" fill="#53517f" d="M 522.5,542.5 C 515.03,546.736 507.363,550.736 499.5,554.5C 499.721,553.265 500.388,552.265 501.5,551.5C 505.091,550.217 508.091,548.217 510.5,545.5C 514.464,544.223 518.464,543.223 522.5,542.5 Z"/></g>
<g><path style="opacity:1" fill="#4a4682" d="M 343.5,552.5 C 336.872,555.814 330.205,559.147 323.5,562.5C 328.355,555.919 335.021,552.586 343.5,552.5 Z"/></g>
<g><path style="opacity:1" fill="#42417e" d="M 190.5,556.5 C 186.194,560.321 181.527,563.655 176.5,566.5C 176.539,565.417 176.873,564.417 177.5,563.5C 180.138,561.863 182.471,559.863 184.5,557.5C 186.396,556.534 188.396,556.201 190.5,556.5 Z"/></g>
<g><path style="opacity:1" fill="#3f3c7f" d="M 431.5,552.5 C 430.7,556.301 428.367,558.301 424.5,558.5C 424.5,559.833 424.5,561.167 424.5,562.5C 421.396,561.971 419.063,562.971 417.5,565.5C 412.851,567.395 408.184,569.061 403.5,570.5C 412.797,564.514 422.13,558.514 431.5,552.5 Z"/></g>
<g><path style="opacity:1" fill="#4d4787" d="M 323.5,562.5 C 318.88,565.305 313.88,567.305 308.5,568.5C 310.359,566.87 312.359,565.204 314.5,563.5C 317.428,562.516 320.428,562.183 323.5,562.5 Z"/></g>
<g><path style="opacity:1" fill="#373781" d="M 216.5,550.5 C 216.278,552.607 215.278,554.274 213.5,555.5C 211.167,556.167 208.833,556.833 206.5,557.5C 204.946,560.93 202.279,562.93 198.5,563.5C 200.173,565.523 200.84,567.856 200.5,570.5C 198.394,570.321 196.728,569.321 195.5,567.5C 193.604,566.534 191.604,566.201 189.5,566.5C 189.617,568.484 188.95,570.15 187.5,571.5C 183.533,572.713 179.533,573.713 175.5,574.5C 188.625,565.738 202.292,557.738 216.5,550.5 Z"/></g>
<g><path style="opacity:1" fill="#413e7f" d="M 153.5,550.5 C 150.962,554.243 148.962,558.243 147.5,562.5C 145.712,562.215 144.045,562.548 142.5,563.5C 141.756,567.373 139.423,569.04 135.5,568.5C 135.437,571.908 133.77,574.241 130.5,575.5C 131.833,576.833 131.833,578.167 130.5,579.5C 127.095,580.425 123.761,581.425 120.5,582.5C 130.865,571.134 141.865,560.467 153.5,550.5 Z"/></g>
<g><path style="opacity:1" fill="#585583" d="M 306.5,570.5 C 303.912,572.625 300.912,573.958 297.5,574.5C 299.777,571.867 302.777,570.534 306.5,570.5 Z"/></g>
<g><path style="opacity:1" fill="#3f3c86" d="M 176.5,566.5 C 167.146,574.517 157.479,582.183 147.5,589.5C 147.421,588.07 147.754,586.736 148.5,585.5C 150.555,584.813 152.221,583.646 153.5,582C 152.594,580.301 152.261,578.467 152.5,576.5C 154.857,576.663 157.19,576.497 159.5,576C 160.126,575.25 160.626,574.416 161,573.5C 161.333,573.833 161.667,574.167 162,574.5C 162.309,573.234 162.809,572.067 163.5,571C 168.065,570.045 172.399,568.545 176.5,566.5 Z"/></g>
<g><path style="opacity:1" fill="#4d4a7f" d="M 287.5,578.5 C 287.047,579.458 286.381,580.292 285.5,581C 277.929,584.25 270.262,587.417 262.5,590.5C 263.028,589.279 263.695,588.113 264.5,587C 272.098,583.959 279.765,581.126 287.5,578.5 Z"/></g>
<g><path style="opacity:1" fill="#42427b" d="M 440.5,590.5 C 436.37,593.403 432.037,596.07 427.5,598.5C 427.722,596.393 428.722,594.726 430.5,593.5C 433.55,591.483 436.883,590.483 440.5,590.5 Z"/></g>
<g><path style="opacity:1" fill="#56547e" d="M 253.5,594.5 C 250.47,596.403 247.137,597.737 243.5,598.5C 246.061,595.637 249.394,594.304 253.5,594.5 Z"/></g>
<g><path style="opacity:1" fill="#3e3b79" d="M 365.5,590.5 C 364.555,592.779 362.888,594.446 360.5,595.5C 357.23,596.255 354.23,597.589 351.5,599.5C 349.257,600.474 346.924,600.808 344.5,600.5C 351.38,597.191 358.38,593.858 365.5,590.5 Z"/></g>
<g><path style="opacity:1" fill="#403d80" d="M 120.5,582.5 C 120.229,584.312 119.562,585.978 118.5,587.5C 114.838,589.003 113.838,591.503 115.5,595C 113.196,595.895 110.862,596.729 108.5,597.5C 106.712,599.897 104.379,601.564 101.5,602.5C 107.109,595.222 113.442,588.556 120.5,582.5 Z"/></g>
<g><path style="opacity:1" fill="#555186" d="M 243.5,598.5 C 239.144,601.068 234.478,603.068 229.5,604.5C 230.007,603.141 231.007,602.141 232.5,601.5C 236.086,600.081 239.753,599.081 243.5,598.5 Z"/></g>
<g><path style="opacity:1" fill="#4c4a7f" d="M 145.5,590.5 C 139.763,596.536 133.429,601.87 126.5,606.5C 126.539,605.417 126.873,604.417 127.5,603.5C 131.737,600.453 135.737,597.12 139.5,593.5C 141.289,591.967 143.289,590.967 145.5,590.5 Z"/></g>
<g><path style="opacity:1" fill="#414085" d="M 222.5,606.5 C 221.657,608.173 220.324,609.34 218.5,610C 212.559,612.259 206.559,614.425 200.5,616.5C 200.5,615.167 200.5,613.833 200.5,612.5C 202.924,612.808 205.257,612.474 207.5,611.5C 206.833,611.167 206.167,610.833 205.5,610.5C 206.376,609.749 207.376,609.249 208.5,609C 213.327,608.774 217.994,607.94 222.5,606.5 Z"/></g>
<g><path style="opacity:1" fill="#4c487b" d="M 126.5,606.5 C 122.153,610.845 117.486,614.845 112.5,618.5C 115.42,614.574 118.753,610.908 122.5,607.5C 123.689,606.571 125.022,606.238 126.5,606.5 Z"/></g>
<g><path style="opacity:1" fill="#4c488b" d="M 191.5,618.5 C 187.887,621.803 183.554,623.803 178.5,624.5C 179.72,622.718 180.386,620.718 180.5,618.5C 182.666,618.579 184.666,619.246 186.5,620.5C 188.056,619.453 189.723,618.786 191.5,618.5 Z"/></g>
<g><path style="opacity:1" fill="#3b397c" d="M 318.5,610.5 C 317.554,613.313 315.554,614.646 312.5,614.5C 312.5,615.833 312.5,617.167 312.5,618.5C 308.774,618.177 305.107,618.511 301.5,619.5C 298.45,621.517 295.117,622.517 291.5,622.5C 300.318,618.261 309.318,614.261 318.5,610.5 Z"/></g>
<g><path style="opacity:1" fill="#5a578a" d="M 178.5,624.5 C 174.784,626.405 170.784,627.739 166.5,628.5C 166.389,627.883 166.056,627.383 165.5,627C 169.633,625.137 173.967,624.304 178.5,624.5 Z"/></g>
<g><path style="opacity:1" fill="#55527e" d="M 390.5,622.5 C 386.049,626.61 381.049,629.944 375.5,632.5C 375.721,631.265 376.388,630.265 377.5,629.5C 381.795,626.962 386.129,624.629 390.5,622.5 Z"/></g>
<g><path style="opacity:1" fill="#f9f8a1" d="M 252.5,676.5 C 249.291,678.265 246.291,680.265 243.5,682.5C 210.586,703.789 176.92,723.789 142.5,742.5C 140.323,742.586 138.323,743.253 136.5,744.5C 136.167,744 135.833,743.5 135.5,743C 137.654,740.013 139.987,737.18 142.5,734.5C 149.059,729.394 155.392,724.061 161.5,718.5C 175.105,709.878 188.105,700.545 200.5,690.5C 202.308,690.509 203.975,690.009 205.5,689C 215.037,683.07 224.37,676.904 233.5,670.5C 234.609,670.443 235.609,670.11 236.5,669.5C 245.497,665.004 254.163,660.004 262.5,654.5C 263.167,654.5 263.833,654.5 264.5,654.5C 268.981,651.758 273.647,649.258 278.5,647C 279.381,646.292 280.047,645.458 280.5,644.5C 280.833,644.5 281.167,644.5 281.5,644.5C 289.094,641.703 296.427,638.369 303.5,634.5C 306.591,633.457 309.591,632.123 312.5,630.5C 313.167,630.833 313.833,631.167 314.5,631.5C 313.352,633.149 312.019,634.649 310.5,636C 291.275,649.769 271.942,663.269 252.5,676.5 Z"/></g>
<g><path style="opacity:1" fill="#3d3a88" d="M 289.5,623.5 C 289.5,624.5 289.5,625.5 289.5,626.5C 288.127,626.343 286.793,626.51 285.5,627C 286.541,630.547 288.875,632.381 292.5,632.5C 292.5,633.833 292.5,635.167 292.5,636.5C 290.712,636.215 289.045,636.548 287.5,637.5C 288.5,637.833 289.5,638.167 290.5,638.5C 294.721,636.675 299.055,635.342 303.5,634.5C 296.427,638.369 289.094,641.703 281.5,644.5C 282.446,642.868 283.446,641.201 284.5,639.5C 283.833,638.833 283.167,638.167 282.5,637.5C 283.833,636.833 285.167,636.167 286.5,635.5C 285.054,633.382 284.387,631.049 284.5,628.5C 280.411,630.552 276.077,631.885 271.5,632.5C 277.213,628.977 283.213,625.977 289.5,623.5 Z"/></g>
<g><path style="opacity:1" fill="#44427a" d="M 112.5,618.5 C 95.3396,636.494 77.6729,653.994 59.5,671C 58.5,671.5 57.5,672 56.5,672.5C 55.4131,665.932 56.7464,659.932 60.5,654.5C 60.3025,658.748 59.3025,662.748 57.5,666.5C 59.604,666.799 61.604,666.466 63.5,665.5C 78.8333,650.167 94.1667,634.833 109.5,619.5C 110.325,618.614 111.325,618.281 112.5,618.5 Z"/></g>
<g><path style="opacity:1" fill="#434279" d="M 268.5,634.5 C 267.993,635.859 266.993,636.859 265.5,637.5C 260.358,640.408 255.024,642.741 249.5,644.5C 255.363,640.401 261.696,637.067 268.5,634.5 Z"/></g>
<g><path style="opacity:1" fill="#2f3191" d="M 281.5,644.5 C 281.167,644.5 280.833,644.5 280.5,644.5C 276.756,645.87 273.089,647.537 269.5,649.5C 267.112,650.554 265.445,652.221 264.5,654.5C 263.833,654.5 263.167,654.5 262.5,654.5C 261.107,653.74 259.607,653.074 258,652.5C 254.894,652.915 254.728,653.915 257.5,655.5C 253.468,657.186 249.468,658.852 245.5,660.5C 245.657,659.127 245.49,657.793 245,656.5C 243.86,659.102 243.027,661.769 242.5,664.5C 240.5,665.167 238.5,665.833 236.5,666.5C 236.5,667.5 236.5,668.5 236.5,669.5C 235.609,670.11 234.609,670.443 233.5,670.5C 229.738,670.287 226.404,668.954 223.5,666.5C 222.41,667.391 222.41,668.391 223.5,669.5C 226.015,670.2 226.682,671.533 225.5,673.5C 222.152,676.844 218.152,679.178 213.5,680.5C 213.664,677.813 213.497,675.146 213,672.5C 213.064,676.606 211.897,680.273 209.5,683.5C 207.955,684.452 206.288,684.785 204.5,684.5C 204.318,679.206 203.818,679.206 203,684.5C 202.626,683.584 202.126,682.75 201.5,682C 200.919,680.428 200.919,678.595 201.5,676.5C 202.5,677.167 203.5,677.833 204.5,678.5C 205.333,677.5 206.167,676.5 207,675.5C 208.356,676.38 209.856,676.714 211.5,676.5C 211.5,675.167 211.5,673.833 211.5,672.5C 210.022,672.762 208.689,672.429 207.5,671.5C 209.96,668.772 212.793,667.772 216,668.5C 216.917,665.438 218.417,662.771 220.5,660.5C 230.001,654.915 239.668,649.582 249.5,644.5C 255.024,642.741 260.358,640.408 265.5,637.5C 266.993,636.859 267.993,635.859 268.5,634.5C 268.973,633.094 269.973,632.427 271.5,632.5C 276.077,631.885 280.411,630.552 284.5,628.5C 284.387,631.049 285.054,633.382 286.5,635.5C 285.167,636.167 283.833,636.833 282.5,637.5C 283.167,638.167 283.833,638.833 284.5,639.5C 283.446,641.201 282.446,642.868 281.5,644.5 Z"/></g>
<g><path style="opacity:1" fill="#565085" d="M 280.5,644.5 C 280.047,645.458 279.381,646.292 278.5,647C 273.647,649.258 268.981,651.758 264.5,654.5C 265.445,652.221 267.112,650.554 269.5,649.5C 273.089,647.537 276.756,645.87 280.5,644.5 Z"/></g>
<g><path style="opacity:1" fill="#575584" d="M 66.5,644.5 C 66.5181,649.143 64.5181,652.477 60.5,654.5C 62.0116,650.799 64.0116,647.466 66.5,644.5 Z"/></g>
<g><path style="opacity:1" fill="#3d3d83" d="M 346.5,652.5 C 340.049,657.944 333.049,662.61 325.5,666.5C 325.821,664.952 326.821,664.285 328.5,664.5C 328.5,663.167 328.5,661.833 328.5,660.5C 329.552,660.649 330.552,660.483 331.5,660C 330.167,659 330.167,658 331.5,657C 336.897,656.571 341.897,655.071 346.5,652.5 Z"/></g>
<g><path style="opacity:1" fill="#3d3a84" d="M 262.5,654.5 C 254.163,660.004 245.497,665.004 236.5,669.5C 236.5,668.5 236.5,667.5 236.5,666.5C 238.5,665.833 240.5,665.167 242.5,664.5C 243.027,661.769 243.86,659.102 245,656.5C 245.49,657.793 245.657,659.127 245.5,660.5C 249.468,658.852 253.468,657.186 257.5,655.5C 254.728,653.915 254.894,652.915 258,652.5C 259.607,653.074 261.107,653.74 262.5,654.5 Z"/></g>
<g><path style="opacity:1" fill="#413f81" d="M 325.5,666.5 C 316.8,673.19 307.8,679.523 298.5,685.5C 298.5,684.5 298.5,683.5 298.5,682.5C 303.098,681.67 305.764,679.003 306.5,674.5C 312.355,674.073 317.355,671.74 321.5,667.5C 322.689,666.571 324.022,666.238 325.5,666.5 Z"/></g>
<g><path style="opacity:1" fill="#464579" d="M 252.5,676.5 C 251.017,680.6 248.017,682.6 243.5,682.5C 246.291,680.265 249.291,678.265 252.5,676.5 Z"/></g>
<g><path style="opacity:1" fill="#373788" d="M 220.5,660.5 C 218.417,662.771 216.917,665.438 216,668.5C 212.793,667.772 209.96,668.772 207.5,671.5C 208.689,672.429 210.022,672.762 211.5,672.5C 211.5,673.833 211.5,675.167 211.5,676.5C 209.856,676.714 208.356,676.38 207,675.5C 206.167,676.5 205.333,677.5 204.5,678.5C 203.5,677.833 202.5,677.167 201.5,676.5C 200.919,678.595 200.919,680.428 201.5,682C 202.126,682.75 202.626,683.584 203,684.5C 203.818,679.206 204.318,679.206 204.5,684.5C 206.288,684.785 207.955,684.452 209.5,683.5C 211.897,680.273 213.064,676.606 213,672.5C 213.497,675.146 213.664,677.813 213.5,680.5C 218.152,679.178 222.152,676.844 225.5,673.5C 226.682,671.533 226.015,670.2 223.5,669.5C 222.41,668.391 222.41,667.391 223.5,666.5C 226.404,668.954 229.738,670.287 233.5,670.5C 224.37,676.904 215.037,683.07 205.5,689C 203.975,690.009 202.308,690.509 200.5,690.5C 200.721,689.265 201.388,688.265 202.5,687.5C 200.5,686.5 198.5,685.5 196.5,684.5C 193.025,687.07 189.525,687.07 186,684.5C 184.101,684.898 182.601,685.898 181.5,687.5C 179.955,688.452 178.288,688.785 176.5,688.5C 190.453,678.182 205.12,668.848 220.5,660.5 Z"/></g>
<g><path style="opacity:1" fill="#48467f" d="M 289.5,690.5 C 279.73,697.916 269.397,704.583 258.5,710.5C 258.539,709.417 258.873,708.417 259.5,707.5C 266.279,704.982 271.946,700.982 276.5,695.5C 279.263,694.896 281.597,693.562 283.5,691.5C 285.396,690.534 287.396,690.201 289.5,690.5 Z"/></g>
<g><path style="opacity:1" fill="#3b3983" d="M 167.5,694.5 C 162.894,699.355 158.06,704.021 153,708.5C 152.781,709.938 152.281,711.271 151.5,712.5C 149.821,710.896 147.821,710.229 145.5,710.5C 152.116,704.191 159.45,698.857 167.5,694.5 Z"/></g>
<g><path style="opacity:1" fill="#31338e" d="M 200.5,690.5 C 188.105,700.545 175.105,709.878 161.5,718.5C 158.048,720.401 154.381,721.901 150.5,723C 148.402,727.259 145.735,731.092 142.5,734.5C 139.987,737.18 137.654,740.013 135.5,743C 135.833,743.5 136.167,744 136.5,744.5C 138.323,743.253 140.323,742.586 142.5,742.5C 142.489,744.017 141.823,745.184 140.5,746C 138.285,746.69 136.118,747.524 134,748.5C 133.167,748.167 132.333,747.833 131.5,747.5C 130.493,744.493 128.493,742.493 125.5,741.5C 127.418,738.894 130.084,737.894 133.5,738.5C 132.793,735.214 132.46,731.881 132.5,728.5C 134.833,728.5 137.167,728.5 139.5,728.5C 139.67,725.509 138.337,723.509 135.5,722.5C 132.767,724.554 129.767,725.887 126.5,726.5C 128.294,724.203 130.294,722.037 132.5,720C 136.5,716.338 140.833,713.171 145.5,710.5C 147.821,710.229 149.821,710.896 151.5,712.5C 152.281,711.271 152.781,709.938 153,708.5C 158.06,704.021 162.894,699.355 167.5,694.5C 169.975,691.759 172.975,689.759 176.5,688.5C 178.288,688.785 179.955,688.452 181.5,687.5C 182.601,685.898 184.101,684.898 186,684.5C 189.525,687.07 193.025,687.07 196.5,684.5C 198.5,685.5 200.5,686.5 202.5,687.5C 201.388,688.265 200.721,689.265 200.5,690.5 Z"/></g>
<g><path style="opacity:1" fill="#464681" d="M 161.5,718.5 C 155.392,724.061 149.059,729.394 142.5,734.5C 145.735,731.092 148.402,727.259 150.5,723C 154.381,721.901 158.048,720.401 161.5,718.5 Z"/></g>
<g><path style="opacity:1" fill="#3c3c84" d="M 195.5,746.5 C 190.665,751.09 184.998,754.423 178.5,756.5C 180.83,753.613 183.83,751.613 187.5,750.5C 187.5,749.167 187.5,747.833 187.5,746.5C 186.5,746.5 185.5,746.5 184.5,746.5C 184.5,745.167 184.5,743.833 184.5,742.5C 185.552,742.351 186.552,742.517 187.5,743C 189.125,743.853 189.458,744.853 188.5,746C 190.81,746.497 193.143,746.663 195.5,746.5 Z"/></g>
<g><path style="opacity:1" fill="#474483" d="M 126.5,726.5 C 125.85,728.435 125.517,730.435 125.5,732.5C 123.712,732.215 122.045,732.548 120.5,733.5C 119.518,735.834 119.351,738.168 120,740.5C 117.973,740.014 115.807,740.014 113.5,740.5C 113.613,743.049 112.946,745.382 111.5,747.5C 105.693,752.127 103.526,758.127 105,765.5C 107.13,766.141 108.63,767.474 109.5,769.5C 111.078,770.298 112.744,770.798 114.5,771C 113.944,771.383 113.611,771.883 113.5,772.5C 113.167,772.5 112.833,772.5 112.5,772.5C 107.015,770.686 103.682,767.02 102.5,761.5C 102.5,760.833 102.5,760.167 102.5,759.5C 106.782,745.99 114.782,734.99 126.5,726.5 Z"/></g>
<g><path style="opacity:1" fill="#555088" d="M 173.5,758.5 C 167.741,762.705 161.408,765.871 154.5,768C 148.998,770.225 143.331,771.725 137.5,772.5C 141.193,769.548 145.526,767.882 150.5,767.5C 158.041,764.099 165.707,761.099 173.5,758.5 Z"/></g>
<g><path style="opacity:0.012" fill="#edefdc" d="M 98.5,765.5 C 99.8333,766.167 99.8333,766.167 98.5,765.5 Z"/></g>
<g><path style="opacity:1" fill="#8e8d9a" d="M 112.5,772.5 C 112.833,772.5 113.167,772.5 113.5,772.5C 119.797,773.32 126.131,773.653 132.5,773.5C 127.5,774.167 122.5,774.833 117.5,775.5C 116.395,774.4 115.062,773.733 113.5,773.5C 112.833,773.5 112.5,773.167 112.5,772.5 Z"/></g>
</svg>
