<?xml version="1.0" standalone="no"?>
<!DOCTYPE svg PUBLIC "-//W3C//DTD SVG 20010904//EN"
 "http://www.w3.org/TR/2001/REC-SVG-20010904/DTD/svg10.dtd">
<svg version="1.0" xmlns="http://www.w3.org/2000/svg"
 width="360.000000pt" height="307.000000pt" viewBox="0 0 360.000000 307.000000"
 preserveAspectRatio="xMidYMid meet">

<g transform="translate(0.000000,307.000000) scale(0.100000,-0.100000)"
fill="#000000" stroke="none">
<path d="M1010 1780 l0 -800 1115 0 1115 0 0 800 0 800 -1115 0 -1115 0 0
-800z m2090 0 l0 -660 -975 0 -975 0 0 660 0 660 975 0 975 0 0 -660z"/>
<path d="M1641 2288 c-111 -75 -114 -213 -7 -292 42 -32 149 -30 195 3 65 47
89 147 51 221 -29 57 -73 84 -145 88 -50 3 -65 0 -94 -20z"/>
<path d="M2485 1858 c-66 -83 -122 -155 -125 -159 -3 -4 -136 12 -295 36 -160
25 -297 45 -306 45 -9 0 -123 -116 -253 -257 l-236 -258 444 -3 c245 -1 647
-1 895 0 l450 3 -221 365 c-121 201 -223 368 -227 372 -3 4 -60 -61 -126 -144z"/>
<path d="M785 2143 c-27 -1 -70 -6 -94 -9 l-43 -6 6 -91 c4 -51 18 -265 31
-477 51 -789 67 -1015 71 -1019 4 -4 183 6 769 44 594 39 1449 95 1452 95 6 0
3 135 -3 173 l-7 37 -63 0 -64 0 0 -43 0 -43 -197 -12 c-109 -7 -470 -30 -803
-51 -333 -22 -683 -45 -778 -51 -96 -6 -177 -9 -180 -5 -6 6 -24 257 -66 935
-9 140 -19 285 -22 323 l-6 67 41 0 c40 0 41 1 41 33 0 55 -12 107 -24 105 -6
-1 -33 -3 -61 -5z"/>
<path d="M452 1675 c-39 -6 -75 -15 -78 -18 -6 -6 32 -259 192 -1282 25 -160
47 -291 49 -293 1 -2 117 15 256 37 140 23 486 77 769 121 283 45 630 99 770
121 140 22 290 45 333 51 86 12 83 8 67 104 -6 32 -13 73 -15 90 l-5 30 -66
-10 -65 -9 3 -41 3 -40 -110 -17 c-518 -80 -1794 -280 -1811 -284 -19 -4 -22
2 -33 78 -6 45 -18 123 -26 172 -22 137 -165 1054 -165 1059 0 2 18 7 40 11
32 5 40 11 36 23 -3 10 -8 38 -12 65 -7 54 -5 53 -132 32z"/>
</g>
</svg>
