<svg aria-hidden="true" style="position: absolute; width: 0; height: 0; overflow: hidden;" version="1.1" xmlns="http://www.w3.org/2000/svg" xmlns:xlink="http://www.w3.org/1999/xlink">
<defs>
<symbol id="icon-slider" viewBox="0 0 38 32">
<title>slider</title>
<path d="M10.528 13.446v8.339h23.244v-16.678h-23.244v8.339zM32.313 13.446v6.879h-20.326v-13.759h20.326v6.879z"></path>
<path d="M17.105 8.151c-1.157 0.782-1.188 2.22-0.073 3.044 0.438 0.334 1.553 0.313 2.033-0.031 0.678-0.49 0.928-1.532 0.532-2.304-0.302-0.594-0.761-0.876-1.511-0.917-0.521-0.031-0.678 0-0.98 0.208z"></path>
<path d="M25.902 12.633c-0.688 0.865-1.272 1.616-1.303 1.657s-1.418-0.125-3.075-0.375c-1.668-0.261-3.096-0.469-3.19-0.469s-1.282 1.209-2.637 2.679l-2.46 2.689 4.628 0.031c2.554 0.010 6.744 0.010 9.329 0l4.691-0.031-2.304-3.805c-1.261-2.095-2.324-3.836-2.366-3.878-0.031-0.042-0.625 0.636-1.313 1.501z"></path>
<path d="M8.182 9.663c-0.281 0.010-0.73 0.063-0.98 0.094l-0.448 0.063 0.063 0.949c0.042 0.532 0.188 2.762 0.323 4.972 0.532 8.224 0.698 10.58 0.74 10.621s1.908-0.063 8.016-0.459c6.192-0.407 15.104-0.99 15.135-0.99 0.063 0 0.031-1.407-0.031-1.803l-0.073-0.386h-1.324v0.896l-2.053 0.125c-1.136 0.073-4.899 0.313-8.37 0.532-3.471 0.229-7.119 0.469-8.109 0.532-1.001 0.063-1.845 0.094-1.876 0.052-0.063-0.063-0.25-2.679-0.688-9.746-0.094-1.459-0.198-2.971-0.229-3.367l-0.063-0.698h0.427c0.417 0 0.427-0.010 0.427-0.344 0-0.573-0.125-1.115-0.25-1.094-0.063 0.010-0.344 0.031-0.636 0.052z"></path>
<path d="M4.711 14.541c-0.407 0.063-0.782 0.156-0.813 0.188-0.063 0.063 0.334 2.7 2.001 13.363 0.261 1.668 0.49 3.033 0.511 3.054 0.010 0.021 1.22-0.156 2.668-0.386 1.459-0.24 5.066-0.803 8.016-1.261 2.95-0.469 6.567-1.032 8.026-1.261s3.023-0.469 3.471-0.532c0.896-0.125 0.865-0.083 0.698-1.084-0.063-0.334-0.136-0.761-0.156-0.938l-0.052-0.313-0.688 0.104-0.678 0.094 0.031 0.427 0.031 0.417-1.147 0.177c-5.399 0.834-18.7 2.919-18.877 2.96-0.198 0.042-0.229-0.021-0.344-0.813-0.063-0.469-0.188-1.282-0.271-1.793-0.229-1.428-1.72-10.986-1.72-11.038 0-0.021 0.188-0.073 0.417-0.115 0.334-0.052 0.417-0.115 0.375-0.24-0.031-0.104-0.083-0.396-0.125-0.678-0.073-0.563-0.052-0.552-1.376-0.334z"></path>
</symbol>
</defs>
</svg>
