<svg aria-hidden="true" style="position: absolute; width: 0; height: 0; overflow: hidden;" version="1.1" xmlns="http://www.w3.org/2000/svg" xmlns:xlink="http://www.w3.org/1999/xlink">
<defs>

<symbol id="icon-instagram" viewBox="0 0 32 32"><path d="M31.969 9.408c-.075-1.7-.35-2.869-.744-3.882a7.793 7.793 0 0 0-1.851-2.838A7.867 7.867 0 0 0 26.542.844C25.523.45 24.361.175 22.66.1 20.947.019 20.403 0 16.059 0s-4.888.019-6.595.094c-1.7.075-2.869.35-3.882.744a7.803 7.803 0 0 0-2.838 1.85A7.867 7.867 0 0 0 .9 5.52C.506 6.539.231 7.702.156 9.402c-.081 1.713-.1 2.257-.1 6.601s.019 4.888.094 6.595c.075 1.7.35 2.869.744 3.882a7.895 7.895 0 0 0 1.85 2.838 7.867 7.867 0 0 0 2.832 1.844c1.019.394 2.182.669 3.882.744 1.706.075 2.25.094 6.595.094s4.888-.019 6.595-.094c1.7-.075 2.869-.35 3.882-.744a8.181 8.181 0 0 0 4.682-4.682c.394-1.019.669-2.182.744-3.882.075-1.707.094-2.25.094-6.595s-.006-4.888-.081-6.595zm-2.882 13.065c-.069 1.563-.331 2.407-.55 2.969a5.31 5.31 0 0 1-3.038 3.038c-.563.219-1.413.481-2.969.55-1.688.075-2.194.094-6.464.094s-4.782-.019-6.464-.094c-1.563-.069-2.407-.331-2.969-.55a4.926 4.926 0 0 1-1.838-1.194 4.974 4.974 0 0 1-1.194-1.838c-.219-.563-.481-1.413-.55-2.969-.075-1.688-.094-2.194-.094-6.464s.019-4.782.094-6.464c.069-1.563.331-2.407.55-2.969a4.868 4.868 0 0 1 1.2-1.838A4.974 4.974 0 0 1 6.639 3.55c.563-.219 1.413-.481 2.969-.55 1.688-.075 2.194-.094 6.464-.094 4.276 0 4.782.019 6.464.094 1.563.069 2.407.331 2.969.55a4.914 4.914 0 0 1 1.838 1.194 4.974 4.974 0 0 1 1.194 1.838c.219.563.481 1.413.55 2.969.075 1.688.094 2.194.094 6.464s-.019 4.77-.094 6.458z"/><path d="M16.059 7.783c-4.538 0-8.22 3.682-8.22 8.22s3.682 8.22 8.22 8.22c4.539 0 8.22-3.682 8.22-8.22s-3.682-8.22-8.22-8.22zm0 13.552a5.333 5.333 0 0 1 0-10.664 5.332 5.332 0 0 1 0 10.664zM26.524 7.458a1.919 1.919 0 1 1-3.838 0 1.919 1.919 0 0 1 3.838 0z"/></symbol>
<symbol id="icon-telegram" viewBox="0 0 32 32"><path d="M22.633 10l-2.497 12.751c0 0-0.107 0.583-0.83 0.583-0.384 0-0.582-0.183-0.582-0.183l-5.409-4.489-2.647-1.334-3.397-0.903c0 0-0.605-0.175-0.605-0.675 0-0.417 0.622-0.615 0.622-0.615l14.211-5.645c-0.001-0.001 0.434-0.157 0.751-0.156 0.195 0 0.417 0.083 0.417 0.333 0 0.167-0.033 0.333-0.033 0.333z"></path>
<path fill="#b0bec5" style="fill: var(--color6, #b0bec5)" d="M15.333 20.337l-2.284 2.249c0 0-0.099 0.077-0.232 0.080-0.046 0.001-0.095-0.006-0.146-0.029l0.643-3.977 2.019 1.676z"></path><path fill="#cfd8dc" style="fill: var(--color7, #cfd8dc)" d="M19.931 12.131c-0.113-0.147-0.321-0.173-0.467-0.062l-8.797 5.265c0 0 1.404 3.928 1.618 4.608s0.387 0.697 0.387 0.697l0.643-3.977 6.555-6.064c0.147-0.111 0.174-0.32 0.063-0.467z"></path>
</symbol>

<symbol id="icon-keyboard_backspace" viewBox="0 0 24 24"><path d="M21 11.016v1.969h-14.156l3.563 3.609-1.406 1.406-6-6 6-6 1.406 1.406-3.563 3.609h14.156z"></path>
</symbol>

<symbol id="icon-close" viewBox="0 0 24 24"><path d="M16 8.806 15.194 8 12 11.194 8.806 8 8 8.806 11.194 12 8 15.194l.806.806L12 12.806 15.194 16l.806-.806L12.806 12 16 8.806Z"/></symbol>

<symbol id="icon-slider" viewBox="0 0 38 32"><path d="M10.528 13.446v8.339h23.244v-16.678h-23.244v8.339zM32.313 13.446v6.879h-20.326v-13.759h20.326v6.879z"></path><path d="M17.105 8.151c-1.157 0.782-1.188 2.22-0.073 3.044 0.438 0.334 1.553 0.313 2.033-0.031 0.678-0.49 0.928-1.532 0.532-2.304-0.302-0.594-0.761-0.876-1.511-0.917-0.521-0.031-0.678 0-0.98 0.208z"></path><path d="M25.902 12.633c-0.688 0.865-1.272 1.616-1.303 1.657s-1.418-0.125-3.075-0.375c-1.668-0.261-3.096-0.469-3.19-0.469s-1.282 1.209-2.637 2.679l-2.46 2.689 4.628 0.031c2.554 0.010 6.744 0.010 9.329 0l4.691-0.031-2.304-3.805c-1.261-2.095-2.324-3.836-2.366-3.878-0.031-0.042-0.625 0.636-1.313 1.501z"></path><path d="M8.182 9.663c-0.281 0.010-0.73 0.063-0.98 0.094l-0.448 0.063 0.063 0.949c0.042 0.532 0.188 2.762 0.323 4.972 0.532 8.224 0.698 10.58 0.74 10.621s1.908-0.063 8.016-0.459c6.192-0.407 15.104-0.99 15.135-0.99 0.063 0 0.031-1.407-0.031-1.803l-0.073-0.386h-1.324v0.896l-2.053 0.125c-1.136 0.073-4.899 0.313-8.37 0.532-3.471 0.229-7.119 0.469-8.109 0.532-1.001 0.063-1.845 0.094-1.876 0.052-0.063-0.063-0.25-2.679-0.688-9.746-0.094-1.459-0.198-2.971-0.229-3.367l-0.063-0.698h0.427c0.417 0 0.427-0.010 0.427-0.344 0-0.573-0.125-1.115-0.25-1.094-0.063 0.010-0.344 0.031-0.636 0.052z"></path><path d="M4.711 14.541c-0.407 0.063-0.782 0.156-0.813 0.188-0.063 0.063 0.334 2.7 2.001 13.363 0.261 1.668 0.49 3.033 0.511 3.054 0.010 0.021 1.22-0.156 2.668-0.386 1.459-0.24 5.066-0.803 8.016-1.261 2.95-0.469 6.567-1.032 8.026-1.261s3.023-0.469 3.471-0.532c0.896-0.125 0.865-0.083 0.698-1.084-0.063-0.334-0.136-0.761-0.156-0.938l-0.052-0.313-0.688 0.104-0.678 0.094 0.031 0.427 0.031 0.417-1.147 0.177c-5.399 0.834-18.7 2.919-18.877 2.96-0.198 0.042-0.229-0.021-0.344-0.813-0.063-0.469-0.188-1.282-0.271-1.793-0.229-1.428-1.72-10.986-1.72-11.038 0-0.021 0.188-0.073 0.417-0.115 0.334-0.052 0.417-0.115 0.375-0.24-0.031-0.104-0.083-0.396-0.125-0.678-0.073-0.563-0.052-0.552-1.376-0.334z"></path></symbol>



<symbol id="icon-download" viewBox="0 0 18 18"><path d="M17 12v3.333c0 .92-.796 1.667-1.778 1.667H2.778C1.796 17 1 16.254 1 15.333V12m3-5l5 5 5-5m-5 5V1"></path></symbol>

<symbol id="icon-download2" viewBox="0 0 20 20"><path d="M13 8v-6h-6v6h-5l8 8 8-8h-5zM0 18h20v2h-20v-2z"></path></symbol>

<symbol id="icon-inbox-download" viewBox="0 0 20 20"><path d="M13 8v-6h-6v6h-5l8 8 8-8h-5zM0 18h20v2h-20v-2z"></path></symbol>

<symbol id="icon-folder-download" viewBox="0 0 32 32"><path d="M16 14h14v11.005c0 1.102-0.892 1.995-1.993 1.995h-25.013c-1.094 0-1.993-0.891-1.993-1.991v-11.009h14v9.050l-3.25-3.25-0.75 0.75 4.5 4.5 4.5-4.5-0.75-0.75-3.25 3.25v-9.050zM1 13v-6.009c0-1.101 0.897-1.991 2.003-1.991h10.997l2 4h11.994c1.109 0 2.006 0.893 2.006 1.995v2.005h-29z"></path></symbol>

<symbol id="icon-tv" viewBox="0 0 32 32"><path d="M22.17 8.624c-2.707-0.557-5.455-0.839-8.165-0.839s-5.457 0.282-8.165 0.839c-0.35 0.072-0.636 0.326-0.749 0.667-1.442 4.381-1.442 8.823 0 13.204 0.112 0.34 0.398 0.594 0.749 0.666 2.708 0.556 5.455 0.839 8.165 0.839 2.709 0 5.458-0.283 8.165-0.84 0.352-0.072 0.637-0.326 0.75-0.666 1.441-4.381 1.441-8.823 0-13.204-0.113-0.34-0.399-0.594-0.75-0.666zM21.969 22.182c-5.309 1.090-10.619 1.090-15.927 0-1.381-4.193-1.381-8.385 0-12.579 5.309-1.091 10.619-1.091 15.927 0 1.381 4.193 1.381 8.385 0 12.579zM30.854 6.32c-0.193-0.814-0.875-1.422-1.705-1.522-4.36-0.53-8.782-0.798-13.144-0.798s-8.783 0.268-13.143 0.797c-0.83 0.101-1.511 0.708-1.704 1.523-1.529 6.423-1.529 12.936 0 19.36 0.193 0.814 0.874 1.422 1.704 1.521 2.101 0.256 4.216 0.443 6.331 0.576-0.114 0.073-0.188 0.147-0.188 0.223 0 0.553 3.134 1 7 1s7-0.447 7-1c0-0.076-0.074-0.15-0.188-0.223 2.115-0.133 4.23-0.32 6.33-0.576 0.83-0.1 1.512-0.707 1.705-1.521 1.531-6.424 1.531-12.937 0.002-19.36zM28.908 25.217c-8.602 1.043-17.204 1.043-25.805 0-1.463-6.145-1.463-12.29 0-18.434 8.602-1.044 17.204-1.044 25.805 0 1.463 6.144 1.463 12.289 0 18.434zM26.506 12c0.828 0 1.5-0.672 1.5-1.5s-0.672-1.5-1.5-1.5-1.5 0.672-1.5 1.5 0.672 1.5 1.5 1.5zM26.506 10c0.275 0 0.5 0.225 0.5 0.5s-0.225 0.5-0.5 0.5-0.5-0.225-0.5-0.5 0.224-0.5 0.5-0.5zM27.506 22c0.275 0 0.5 0.223 0.5 0.5 0 0.275-0.225 0.5-0.5 0.5h-3c-0.277 0-0.5-0.225-0.5-0.5 0-0.277 0.223-0.5 0.5-0.5h3zM28.506 19c0.275 0 0.5 0.223 0.5 0.5 0 0.275-0.225 0.5-0.5 0.5h-3c-0.277 0-0.5-0.225-0.5-0.5 0-0.277 0.223-0.5 0.5-0.5h3zM28.506 16c0.275 0 0.5 0.224 0.5 0.5s-0.225 0.5-0.5 0.5h-3c-0.277 0-0.5-0.224-0.5-0.5s0.223-0.5 0.5-0.5h3zM13.505 11.804c0.276-0.011 0.5 0.204 0.5 0.48s-0.225 0.508-0.5 0.518l-3.749 0.257c-0.273 0.028-0.527 0.274-0.564 0.546l-0.167 1.895c-0.011 0.275-0.245 0.5-0.518 0.5s-0.487-0.225-0.473-0.5l0.305-2.786c0.046-0.272 0.307-0.52 0.58-0.551l4.586-0.359z"></path>
</symbol>

</defs>
</svg>
