<svg aria-hidden="true" style="position: absolute; width: 0; height: 0; overflow: hidden;" version="1.1" xmlns="http://www.w3.org/2000/svg" xmlns:xlink="http://www.w3.org/1999/xlink">
<defs>

<symbol id="icon-instagram" viewBox="0 0 32 32"><path d="M31.969 9.408c-.075-1.7-.35-2.869-.744-3.882a7.793 7.793 0 0 0-1.851-2.838A7.867 7.867 0 0 0 26.542.844C25.523.45 24.361.175 22.66.1 20.947.019 20.403 0 16.059 0s-4.888.019-6.595.094c-1.7.075-2.869.35-3.882.744a7.803 7.803 0 0 0-2.838 1.85A7.867 7.867 0 0 0 .9 5.52C.506 6.539.231 7.702.156 9.402c-.081 1.713-.1 2.257-.1 6.601s.019 4.888.094 6.595c.075 1.7.35 2.869.744 3.882a7.895 7.895 0 0 0 1.85 2.838 7.867 7.867 0 0 0 2.832 1.844c1.019.394 2.182.669 3.882.744 1.706.075 2.25.094 6.595.094s4.888-.019 6.595-.094c1.7-.075 2.869-.35 3.882-.744a8.181 8.181 0 0 0 4.682-4.682c.394-1.019.669-2.182.744-3.882.075-1.707.094-2.25.094-6.595s-.006-4.888-.081-6.595zm-2.882 13.065c-.069 1.563-.331 2.407-.55 2.969a5.31 5.31 0 0 1-3.038 3.038c-.563.219-1.413.481-2.969.55-1.688.075-2.194.094-6.464.094s-4.782-.019-6.464-.094c-1.563-.069-2.407-.331-2.969-.55a4.926 4.926 0 0 1-1.838-1.194 4.974 4.974 0 0 1-1.194-1.838c-.219-.563-.481-1.413-.55-2.969-.075-1.688-.094-2.194-.094-6.464s.019-4.782.094-6.464c.069-1.563.331-2.407.55-2.969a4.868 4.868 0 0 1 1.2-1.838A4.974 4.974 0 0 1 6.639 3.55c.563-.219 1.413-.481 2.969-.55 1.688-.075 2.194-.094 6.464-.094 4.276 0 4.782.019 6.464.094 1.563.069 2.407.331 2.969.55a4.914 4.914 0 0 1 1.838 1.194 4.974 4.974 0 0 1 1.194 1.838c.219.563.481 1.413.55 2.969.075 1.688.094 2.194.094 6.464s-.019 4.77-.094 6.458z"/><path d="M16.059 7.783c-4.538 0-8.22 3.682-8.22 8.22s3.682 8.22 8.22 8.22c4.539 0 8.22-3.682 8.22-8.22s-3.682-8.22-8.22-8.22zm0 13.552a5.333 5.333 0 0 1 0-10.664 5.332 5.332 0 0 1 0 10.664zM26.524 7.458a1.919 1.919 0 1 1-3.838 0 1.919 1.919 0 0 1 3.838 0z"/></symbol>

<symbol id="icon-telegram" viewBox="0 0 32 32"><path d="M22.633 10l-2.497 12.751c0 0-0.107 0.583-0.83 0.583-0.384 0-0.582-0.183-0.582-0.183l-5.409-4.489-2.647-1.334-3.397-0.903c0 0-0.605-0.175-0.605-0.675 0-0.417 0.622-0.615 0.622-0.615l14.211-5.645c-0.001-0.001 0.434-0.157 0.751-0.156 0.195 0 0.417 0.083 0.417 0.333 0 0.167-0.033 0.333-0.033 0.333z"></path>
<path fill="#b0bec5" style="fill: var(--color6, #b0bec5)" d="M15.333 20.337l-2.284 2.249c0 0-0.099 0.077-0.232 0.080-0.046 0.001-0.095-0.006-0.146-0.029l0.643-3.977 2.019 1.676z"></path><path fill="#cfd8dc" style="fill: var(--color7, #cfd8dc)" d="M19.931 12.131c-0.113-0.147-0.321-0.173-0.467-0.062l-8.797 5.265c0 0 1.404 3.928 1.618 4.608s0.387 0.697 0.387 0.697l0.643-3.977 6.555-6.064c0.147-0.111 0.174-0.32 0.063-0.467z"></path>
</symbol>

<symbol id="icon-download" viewBox="0 0 18 18"><path d="M17 12v3.333c0 .92-.796 1.667-1.778 1.667H2.778C1.796 17 1 16.254 1 15.333V12m3-5l5 5 5-5m-5 5V1"></path></symbol>
</defs>
</svg>
